Ruwudu-Bold.ufo
<glyph name="K" format="2">
  <advance width="740"/>
  <unicode hex="004B"/>
  <anchor x="384" y="660" name="top"/>
  <outline>
    <contour>
      <point x="33" y="0" type="line"/>
      <point x="74" y="1"/>
      <point x="122" y="3"/>
      <point x="184" y="3" type="curve" smooth="yes"/>
      <point x="248" y="3"/>
      <point x="300" y="2"/>
      <point x="336" y="0" type="curve"/>
      <point x="347" y="38" type="line"/>
      <point x="258" y="59" type="line"/>
      <point x="257" y="152"/>
      <point x="257" y="246"/>
      <point x="257" y="312" type="curve" smooth="yes"/>
      <point x="257" y="403"/>
      <point x="257" y="463"/>
      <point x="258" y="595" type="curve"/>
      <point x="347" y="621" type="line"/>
      <point x="336" y="660" type="line"/>
      <point x="291" y="658"/>
      <point x="245" y="656"/>
      <point x="188" y="656" type="curve" smooth="yes"/>
      <point x="126" y="656"/>
      <point x="74" y="657"/>
      <point x="32" y="660" type="curve"/>
      <point x="20" y="621" type="line"/>
      <point x="108" y="595" type="line"/>
      <point x="111" y="485"/>
      <point x="113" y="387"/>
      <point x="113" y="312" type="curve" smooth="yes"/>
      <point x="113" y="230"/>
      <point x="111" y="171"/>
      <point x="108" y="59" type="curve"/>
      <point x="20" y="38" type="line"/>
    </contour>
    <contour>
      <point x="267" y="324" type="curve"/>
      <point x="355" y="192"/>
      <point x="395" y="126"/>
      <point x="468" y="1" type="curve"/>
      <point x="490" y="1"/>
      <point x="542" y="3"/>
      <point x="588" y="3" type="curve" smooth="yes"/>
      <point x="623" y="3"/>
      <point x="661" y="2"/>
      <point x="701" y="0" type="curve"/>
      <point x="715" y="38" type="line"/>
      <point x="614" y="59" type="line"/>
      <point x="523" y="178"/>
      <point x="476" y="249"/>
      <point x="388" y="390" type="curve"/>
      <point x="368" y="331" type="line"/>
      <point x="445" y="424"/>
      <point x="523" y="507"/>
      <point x="610" y="600" type="curve"/>
      <point x="697" y="621" type="line"/>
      <point x="685" y="660" type="line"/>
      <point x="650" y="658"/>
      <point x="611" y="657"/>
      <point x="565" y="657" type="curve" smooth="yes"/>
      <point x="519" y="657"/>
      <point x="482" y="657"/>
      <point x="436" y="660" type="curve"/>
      <point x="424" y="621" type="line"/>
      <point x="505" y="600" type="line"/>
      <point x="442" y="501"/>
      <point x="390" y="433"/>
    </contour>
  </outline>
</glyph>
<glyph name="micro" format="2">
  <advance width="641"/>
  <unicode hex="00B5"/>
  <outline>
    <contour>
      <point x="207" y="434" type="curve"/>
      <point x="64" y="434" type="line"/>
      <point x="66" y="390"/>
      <point x="68" y="252"/>
      <point x="67" y="151" type="curve" smooth="yes"/>
      <point x="66" y="75"/>
      <point x="118" y="-15"/>
      <point x="203" y="-15" type="curve" smooth="yes"/>
      <point x="319" y="-15"/>
      <point x="372" y="81"/>
      <point x="385" y="169" type="curve"/>
      <point x="337" y="191" type="line"/>
      <point x="337" y="131"/>
      <point x="293" y="72"/>
      <point x="262" y="59" type="curve"/>
      <point x="214" y="59"/>
      <point x="196" y="139"/>
      <point x="196" y="209" type="curve" smooth="yes"/>
      <point x="196" y="286"/>
      <point x="204" y="386"/>
    </contour>
    <contour>
      <point x="117" y="182" type="curve"/>
      <point x="67" y="182" type="line"/>
      <point x="67" y="122"/>
      <point x="67" y="-117"/>
      <point x="75" y="-218" type="curve"/>
      <point x="148" y="-218"/>
      <point x="214" y="-198"/>
      <point x="228" y="-158" type="curve"/>
      <point x="100" y="-93"/>
      <point x="110" y="93"/>
    </contour>
    <contour>
      <point x="475" y="434" type="curve"/>
      <point x="330" y="434" type="line"/>
      <point x="337" y="316"/>
      <point x="337" y="259"/>
      <point x="337" y="151" type="curve" smooth="yes"/>
      <point x="337" y="37"/>
      <point x="376" y="-16"/>
      <point x="437" y="-16" type="curve" smooth="yes"/>
      <point x="484" y="-16"/>
      <point x="545" y="16"/>
      <point x="611" y="75" type="curve"/>
      <point x="584" y="114" type="line"/>
      <point x="550" y="93"/>
      <point x="525" y="81"/>
      <point x="506" y="81" type="curve" smooth="yes"/>
      <point x="473" y="81"/>
      <point x="461" y="117"/>
      <point x="461" y="195" type="curve" smooth="yes"/>
      <point x="461" y="242"/>
      <point x="471" y="357"/>
    </contour>
  </outline>
</glyph>
<glyph name="questiondown" format="2">
  <advance width="483"/>
  <unicode hex="00BF"/>
  <outline>
    <contour>
      <point x="327" y="535" type="curve"/>
      <point x="265" y="535" type="line"/>
      <point x="263" y="498"/>
      <point x="258" y="471"/>
      <point x="255" y="441" type="curve"/>
      <point x="102" y="435"/>
      <point x="25" y="322"/>
      <point x="25" y="211" type="curve" smooth="yes"/>
      <point x="25" y="99"/>
      <point x="99" y="-8"/>
      <point x="250" y="-8" type="curve" smooth="yes"/>
      <point x="323" y="-8"/>
      <point x="386" y="6"/>
      <point x="433" y="26" type="curve"/>
      <point x="418" y="84"/>
      <point x="406" y="135"/>
      <point x="397" y="193" type="curve"/>
      <point x="347" y="193" type="line"/>
      <point x="327" y="88" type="line"/>
      <point x="281" y="62"/>
      <point x="224" y="52"/>
      <point x="182" y="57" type="curve"/>
      <point x="158" y="91"/>
      <point x="144" y="130"/>
      <point x="144" y="180" type="curve" smooth="yes"/>
      <point x="144" y="303"/>
      <point x="273" y="318"/>
      <point x="352" y="315" type="curve"/>
      <point x="337" y="414"/>
      <point x="334" y="465"/>
    </contour>
    <contour>
      <point x="295" y="707" type="curve" smooth="yes"/>
      <point x="275" y="707"/>
      <point x="258" y="702"/>
      <point x="238" y="699" type="curve"/>
      <point x="234" y="680"/>
      <point x="232" y="663"/>
      <point x="232" y="644" type="curve" smooth="yes"/>
      <point x="232" y="624"/>
      <point x="234" y="608"/>
      <point x="238" y="588" type="curve"/>
      <point x="258" y="583"/>
      <point x="275" y="580"/>
      <point x="295" y="580" type="curve" smooth="yes"/>
      <point x="311" y="580"/>
      <point x="328" y="583"/>
      <point x="349" y="588" type="curve"/>
      <point x="352" y="608"/>
      <point x="356" y="624"/>
      <point x="356" y="644" type="curve" smooth="yes"/>
      <point x="356" y="663"/>
      <point x="352" y="680"/>
      <point x="349" y="699" type="curve"/>
      <point x="328" y="702"/>
      <point x="311" y="707"/>
    </contour>
  </outline>
</glyph>
<glyph name="Thorn" format="2">
  <advance width="629"/>
  <unicode hex="00DE"/>
  <outline>
    <component base="I" xOffset="-10"/>
    <contour>
      <point x="198" y="525" type="curve"/>
      <point x="244" y="472" type="line"/>
      <point x="370" y="494"/>
      <point x="439" y="447"/>
      <point x="439" y="330" type="curve" smooth="yes"/>
      <point x="439" y="274"/>
      <point x="418" y="220"/>
      <point x="376" y="192" type="curve"/>
      <point x="325" y="182"/>
      <point x="269" y="189"/>
      <point x="229" y="203" type="curve"/>
      <point x="229" y="140" type="line"/>
      <point x="268" y="132"/>
      <point x="304" y="128"/>
      <point x="328" y="128" type="curve" smooth="yes"/>
      <point x="490" y="128"/>
      <point x="589" y="214"/>
      <point x="589" y="343" type="curve" smooth="yes"/>
      <point x="589" y="455"/>
      <point x="508" y="537"/>
      <point x="369" y="537" type="curve" smooth="yes"/>
      <point x="295" y="537"/>
      <point x="260" y="534"/>
    </contour>
  </outline>
</glyph>
<glyph name="number-ar" format="2">
  <advance width="979"/>
  <unicode hex="0600"/>
  <anchor x="86" y="180" name="digit"/>
  <outline>
    <contour>
      <point x="50" y="0" type="curve"/>
      <point x="109" y="0"/>
      <point x="882" y="0"/>
      <point x="949" y="0" type="curve"/>
      <point x="949" y="81"/>
      <point x="919" y="140"/>
      <point x="903" y="140" type="curve" smooth="yes"/>
      <point x="49" y="140" type="line" smooth="yes"/>
      <point x="38" y="140"/>
      <point x="30" y="134"/>
      <point x="30" y="104" type="curve" smooth="yes"/>
      <point x="30" y="80"/>
      <point x="39" y="31"/>
    </contour>
    <contour>
      <point x="672" y="249" type="curve" smooth="yes"/>
      <point x="726" y="249"/>
      <point x="828" y="246"/>
      <point x="904" y="234" type="curve"/>
      <point x="904" y="307"/>
      <point x="863" y="380"/>
      <point x="842" y="382" type="curve" smooth="yes"/>
      <point x="786" y="388"/>
      <point x="690" y="390"/>
      <point x="632" y="387" type="curve" smooth="yes"/>
      <point x="579" y="384"/>
      <point x="525" y="359"/>
      <point x="525" y="308" type="curve" smooth="yes"/>
      <point x="525" y="272"/>
      <point x="533" y="228"/>
      <point x="549" y="171" type="curve" smooth="yes"/>
      <point x="557" y="143"/>
      <point x="557" y="140"/>
      <point x="515" y="140" type="curve"/>
      <point x="600" y="103" type="line"/>
      <point x="667" y="140" type="line"/>
      <point x="643" y="140"/>
      <point x="632" y="154"/>
      <point x="626" y="193" type="curve" smooth="yes"/>
      <point x="619" y="239"/>
      <point x="623" y="249"/>
    </contour>
  </outline>
</glyph>
<glyph name="alef-ar" format="2">
  <advance width="254"/>
  <unicode hex="0627"/>
  <anchor x="138" y="-66" name="bottom"/>
  <anchor x="120" y="625" name="top"/>
  <outline>
    <contour>
      <point x="186" y="587" type="curve"/>
      <point x="181" y="594"/>
      <point x="177" y="598"/>
      <point x="174" y="598" type="curve" smooth="yes"/>
      <point x="158" y="598"/>
      <point x="94" y="582"/>
      <point x="55" y="554" type="curve"/>
      <point x="70" y="424"/>
      <point x="94" y="208"/>
      <point x="107" y="-39" type="curve"/>
      <point x="124" y="-41"/>
      <point x="165" y="-36"/>
      <point x="174" y="-24" type="curve"/>
      <point x="174" y="-11"/>
      <point x="175" y="87"/>
      <point x="175" y="161" type="curve" smooth="yes"/>
      <point x="174" y="253"/>
      <point x="187" y="483"/>
    </contour>
  </outline>
</glyph>
<glyph name="hah-ar" format="2">
  <advance width="643"/>
  <unicode hex="062D"/>
  <anchor x="346" y="-89" name="bottom"/>
  <anchor x="292" y="426" name="top"/>
  <outline>
    <contour>
      <point x="454" y="393" type="curve" smooth="yes"/>
      <point x="393" y="393"/>
      <point x="263" y="353"/>
      <point x="151" y="353" type="curve" smooth="yes"/>
      <point x="101" y="353"/>
      <point x="77" y="356"/>
      <point x="58" y="359" type="curve"/>
      <point x="55" y="349"/>
      <point x="55" y="330"/>
      <point x="55" y="323" type="curve" smooth="yes"/>
      <point x="55" y="273"/>
      <point x="82" y="207"/>
      <point x="157" y="207" type="curve" smooth="yes"/>
      <point x="225" y="207"/>
      <point x="345" y="250"/>
      <point x="420" y="250" type="curve" smooth="yes"/>
      <point x="443" y="250"/>
      <point x="451" y="202"/>
      <point x="451" y="180" type="curve" smooth="yes"/>
      <point x="451" y="168"/>
      <point x="450" y="166"/>
      <point x="396" y="166" type="curve" smooth="yes"/>
      <point x="215" y="166"/>
      <point x="37" y="79"/>
      <point x="37" y="-121" type="curve" smooth="yes"/>
      <point x="37" y="-278"/>
      <point x="101" y="-391"/>
      <point x="304" y="-521" type="curve"/>
      <point x="308" y="-517"/>
      <point x="312" y="-509"/>
      <point x="312" y="-503" type="curve"/>
      <point x="190" y="-399"/>
      <point x="144" y="-279"/>
      <point x="144" y="-191" type="curve" smooth="yes"/>
      <point x="144" y="-70"/>
      <point x="231" y="27"/>
      <point x="378" y="27" type="curve" smooth="yes"/>
      <point x="442" y="27"/>
      <point x="506" y="18"/>
      <point x="563" y="-2" type="curve"/>
      <point x="569" y="11"/>
      <point x="578" y="50"/>
      <point x="578" y="77" type="curve" smooth="yes"/>
      <point x="578" y="104"/>
      <point x="576" y="117"/>
      <point x="572" y="127" type="curve" smooth="yes"/>
      <point x="568" y="137"/>
      <point x="541" y="143"/>
      <point x="538" y="156" type="curve" smooth="yes"/>
      <point x="499" y="342"/>
      <point x="483" y="393"/>
    </contour>
  </outline>
</glyph>
<glyph name="reh-ar" format="2">
  <advance width="363"/>
  <unicode hex="0631"/>
  <anchor x="216" y="-241" name="bottom"/>
  <anchor x="155" y="370" name="top"/>
  <outline>
    <contour>
      <point x="231" y="-140" type="curve" smooth="yes"/>
      <point x="264" y="-115"/>
      <point x="288" y="25"/>
      <point x="288" y="97" type="curve" smooth="yes"/>
      <point x="288" y="181"/>
      <point x="265" y="287"/>
      <point x="253" y="331" type="curve" smooth="yes"/>
      <point x="251" y="339"/>
      <point x="247" y="345"/>
      <point x="235" y="345" type="curve"/>
      <point x="223" y="340"/>
      <point x="173" y="307"/>
      <point x="150" y="288" type="curve"/>
      <point x="180" y="232"/>
      <point x="205" y="142"/>
      <point x="205" y="69" type="curve" smooth="yes"/>
      <point x="205" y="-8"/>
      <point x="-102" y="-252"/>
      <point x="-320" y="-423" type="curve"/>
      <point x="-320" y="-433"/>
      <point x="-311" y="-447"/>
      <point x="-304" y="-453" type="curve"/>
      <point x="-76" y="-334"/>
      <point x="98" y="-241"/>
    </contour>
  </outline>
</glyph>
<glyph name="kaf-ar" format="2">
  <advance width="734"/>
  <unicode hex="0643"/>
  <anchor x="366" y="-40" name="bottom"/>
  <anchor x="349" y="524" name="top"/>
  <outline>
    <component base="hamza-ar" xOffset="221" yOffset="223"/>
    <contour>
      <point x="667" y="153" type="curve" smooth="yes"/>
      <point x="668" y="300"/>
      <point x="665" y="535"/>
      <point x="661" y="652" type="curve"/>
      <point x="656" y="659"/>
      <point x="652" y="663"/>
      <point x="649" y="663" type="curve" smooth="yes"/>
      <point x="633" y="663"/>
      <point x="564" y="645"/>
      <point x="530" y="619" type="curve"/>
      <point x="558" y="452"/>
      <point x="590" y="260"/>
      <point x="590" y="179" type="curve" smooth="yes"/>
      <point x="590" y="161"/>
      <point x="587" y="140"/>
      <point x="553" y="140" type="curve" smooth="yes"/>
      <point x="79" y="140" type="line" smooth="yes"/>
      <point x="65" y="140"/>
      <point x="60" y="132"/>
      <point x="60" y="112" type="curve" smooth="yes"/>
      <point x="60" y="80"/>
      <point x="73" y="31"/>
      <point x="93" y="0" type="curve"/>
      <point x="588" y="0" type="line" smooth="yes"/>
      <point x="647" y="0"/>
      <point x="667" y="82"/>
    </contour>
  </outline>
</glyph>
<glyph name="dammatan-ar" format="2">
  <unicode hex="064C"/>
  <anchor x="138" y="526" name="_top"/>
  <anchor x="97" y="762" name="top"/>
  <outline>
    <component base="damma-ar"/>
    <contour>
      <point x="90" y="765" type="curve" smooth="yes"/>
      <point x="95" y="748"/>
      <point x="102" y="712"/>
      <point x="102" y="690" type="curve" smooth="yes"/>
      <point x="102" y="679"/>
      <point x="100" y="671"/>
      <point x="96" y="671" type="curve" smooth="yes"/>
      <point x="-20" y="671" type="line"/>
      <point x="-20" y="646"/>
      <point x="-17" y="626"/>
      <point x="-7" y="626" type="curve" smooth="yes"/>
      <point x="144" y="626"/>
      <point x="123" y="626"/>
      <point x="136" y="626" type="curve"/>
      <point x="142" y="648"/>
      <point x="145" y="674"/>
      <point x="145" y="701" type="curve" smooth="yes"/>
      <point x="145" y="728"/>
      <point x="142" y="754"/>
      <point x="135" y="775" type="curve" smooth="yes"/>
      <point x="133" y="780"/>
      <point x="88" y="772"/>
    </contour>
  </outline>
</glyph>
<glyph name="sukun-ar" format="2">
  <unicode hex="0652"/>
  <anchor x="118" y="538" name="_top"/>
  <anchor x="116" y="738" name="top"/>
  <outline>
    <contour>
      <point x="116" y="562" type="curve" smooth="yes"/>
      <point x="158" y="562"/>
      <point x="194" y="597"/>
      <point x="194" y="640" type="curve" smooth="yes"/>
      <point x="194" y="683"/>
      <point x="158" y="718"/>
      <point x="116" y="718" type="curve" smooth="yes"/>
      <point x="73" y="718"/>
      <point x="37" y="683"/>
      <point x="37" y="640" type="curve" smooth="yes"/>
      <point x="37" y="595"/>
      <point x="74" y="562"/>
    </contour>
    <contour>
      <point x="116" y="607" type="curve" smooth="yes"/>
      <point x="97" y="607"/>
      <point x="83" y="621"/>
      <point x="83" y="640" type="curve" smooth="yes"/>
      <point x="83" y="659"/>
      <point x="97" y="673"/>
      <point x="116" y="673" type="curve" smooth="yes"/>
      <point x="134" y="673"/>
      <point x="149" y="659"/>
      <point x="149" y="640" type="curve" smooth="yes"/>
      <point x="149" y="621"/>
      <point x="134" y="607"/>
    </contour>
  </outline>
</glyph>
<glyph name="hamzaabove-ar" format="2">
  <unicode hex="0654"/>
  <anchor x="67" y="515" name="_top"/>
  <anchor x="67" y="718" name="top"/>
  <outline>
    <contour>
      <point x="1" y="533" type="curve"/>
      <point x="162" y="533" type="line"/>
      <point x="162" y="556"/>
      <point x="161" y="576"/>
      <point x="157" y="576" type="curve" smooth="yes"/>
      <point x="65" y="576" type="line"/>
      <point x="62" y="576"/>
      <point x="62" y="580"/>
      <point x="62" y="583" type="curve" smooth="yes"/>
      <point x="62" y="589"/>
      <point x="65" y="596"/>
      <point x="69" y="596" type="curve"/>
      <point x="162" y="596" type="line"/>
      <point x="162" y="619"/>
      <point x="161" y="639"/>
      <point x="157" y="639" type="curve" smooth="yes"/>
      <point x="65" y="639" type="line"/>
      <point x="63" y="639"/>
      <point x="62" y="641"/>
      <point x="62" y="644" type="curve" smooth="yes"/>
      <point x="62" y="650"/>
      <point x="66" y="659"/>
      <point x="71" y="659" type="curve"/>
      <point x="162" y="659" type="line"/>
      <point x="162" y="691"/>
      <point x="161" y="702"/>
      <point x="157" y="702" type="curve" smooth="yes"/>
      <point x="7" y="702" type="line" smooth="yes"/>
      <point x="-9" y="702"/>
      <point x="-13" y="693"/>
      <point x="-13" y="681" type="curve" smooth="yes"/>
      <point x="-13" y="669"/>
      <point x="-9" y="639"/>
      <point x="-9" y="616" type="curve"/>
      <point x="-9" y="599"/>
      <point x="-13" y="573"/>
      <point x="-13" y="551" type="curve" smooth="yes"/>
      <point x="-13" y="540"/>
      <point x="-10" y="533"/>
    </contour>
  </outline>
</glyph>
<glyph name="vinvertedabove-ar" format="2">
  <unicode hex="065B"/>
  <anchor x="118" y="480" name="_top"/>
  <anchor x="119" y="691" name="top"/>
  <outline>
    <contour>
      <point x="5" y="536" type="curve"/>
      <point x="5" y="522"/>
      <point x="37" y="501"/>
      <point x="45" y="501" type="curve"/>
      <point x="121" y="589" type="line"/>
      <point x="198" y="499" type="line"/>
      <point x="215" y="505"/>
      <point x="236" y="530"/>
      <point x="233" y="534" type="curve"/>
      <point x="151" y="634" type="line" smooth="yes"/>
      <point x="139" y="648"/>
      <point x="120" y="661"/>
      <point x="111" y="661" type="curve" smooth="yes"/>
      <point x="110" y="661"/>
      <point x="65" y="596"/>
    </contour>
  </outline>
</glyph>
<glyph name="one-ar" format="2">
  <advance width="298"/>
  <unicode hex="0661"/>
  <outline>
    <contour>
      <point x="165" y="-15" type="curve"/>
      <point x="182" y="-11"/>
      <point x="203" y="-6"/>
      <point x="214" y="11" type="curve"/>
      <point x="226" y="91"/>
      <point x="233" y="192"/>
      <point x="233" y="295" type="curve" smooth="yes"/>
      <point x="233" y="431"/>
      <point x="221" y="583"/>
      <point x="194" y="674" type="curve"/>
      <point x="173" y="674"/>
      <point x="93" y="627"/>
      <point x="65" y="581" type="curve"/>
      <point x="115" y="472"/>
      <point x="165" y="258"/>
      <point x="165" y="25" type="curve" smooth="yes"/>
      <point x="165" y="12"/>
      <point x="165" y="-1"/>
    </contour>
  </outline>
</glyph>
<glyph name="two-ar" format="2">
  <advance width="491"/>
  <unicode hex="0662"/>
  <outline>
    <contour>
      <point x="141" y="501" type="line"/>
      <point x="179" y="380"/>
      <point x="241" y="324"/>
      <point x="301" y="324" type="curve" smooth="yes"/>
      <point x="384" y="324"/>
      <point x="466" y="445"/>
      <point x="466" y="653" type="curve"/>
      <point x="454" y="663"/>
      <point x="442" y="671"/>
      <point x="420" y="670" type="curve"/>
      <point x="406" y="544"/>
      <point x="364" y="485"/>
      <point x="305" y="485" type="curve" smooth="yes"/>
      <point x="246" y="485"/>
      <point x="188" y="536"/>
      <point x="147" y="661" type="curve"/>
    </contour>
    <contour>
      <point x="118" y="-15" type="curve"/>
      <point x="133" y="-15"/>
      <point x="158" y="-4"/>
      <point x="168" y="12" type="curve"/>
      <point x="180" y="107"/>
      <point x="186" y="204"/>
      <point x="186" y="297" type="curve" smooth="yes"/>
      <point x="186" y="427"/>
      <point x="177" y="565"/>
      <point x="147" y="661" type="curve"/>
      <point x="120" y="661"/>
      <point x="44" y="606"/>
      <point x="25" y="570" type="curve"/>
      <point x="92" y="424"/>
      <point x="120" y="210"/>
    </contour>
  </outline>
</glyph>
<glyph name="four-ar" format="2">
  <advance width="451"/>
  <unicode hex="0664"/>
  <outline>
    <contour>
      <point x="363" y="642" type="curve"/>
      <point x="360" y="672" type="line"/>
      <point x="317" y="676"/>
      <point x="252" y="674"/>
      <point x="240" y="666" type="curve"/>
      <point x="129" y="609"/>
      <point x="32" y="518"/>
      <point x="32" y="440" type="curve" smooth="yes"/>
      <point x="32" y="380"/>
      <point x="98" y="331"/>
      <point x="225" y="301" type="curve"/>
      <point x="275" y="380" type="line"/>
      <point x="105" y="279"/>
      <point x="25" y="198"/>
      <point x="25" y="125" type="curve" smooth="yes"/>
      <point x="25" y="91"/>
      <point x="109" y="-10"/>
      <point x="352" y="-10" type="curve"/>
      <point x="384" y="10"/>
      <point x="420" y="70"/>
      <point x="426" y="119" type="curve"/>
      <point x="235" y="119"/>
      <point x="128" y="189"/>
      <point x="128" y="203" type="curve" smooth="yes"/>
      <point x="128" y="220"/>
      <point x="172" y="261"/>
      <point x="288" y="291" type="curve"/>
      <point x="333" y="322"/>
      <point x="347" y="390"/>
      <point x="353" y="422" type="curve"/>
      <point x="257" y="429"/>
      <point x="131" y="476"/>
      <point x="131" y="506" type="curve" smooth="yes"/>
      <point x="131" y="523"/>
      <point x="211" y="589"/>
    </contour>
  </outline>
</glyph>
<glyph name="five-ar" format="2">
  <advance width="446"/>
  <unicode hex="0665"/>
  <outline>
    <contour>
      <point x="168" y="539"/>
      <point x="40" y="378"/>
      <point x="40" y="204" type="curve" smooth="yes"/>
      <point x="40" y="124"/>
      <point x="92" y="73"/>
      <point x="224" y="73" type="curve" smooth="yes"/>
      <point x="352" y="73"/>
      <point x="406" y="133"/>
      <point x="406" y="219" type="curve" smooth="yes"/>
      <point x="406" y="409"/>
      <point x="307" y="539"/>
      <point x="224" y="539" type="curve" smooth="yes"/>
    </contour>
    <contour>
      <point x="244" y="404"/>
      <point x="345" y="331"/>
      <point x="345" y="260" type="curve" smooth="yes"/>
      <point x="345" y="231"/>
      <point x="302" y="215"/>
      <point x="221" y="215" type="curve" smooth="yes"/>
      <point x="138" y="215"/>
      <point x="109" y="230"/>
      <point x="109" y="258" type="curve" smooth="yes"/>
      <point x="109" y="330"/>
      <point x="144" y="404"/>
      <point x="184" y="404" type="curve" smooth="yes"/>
    </contour>
  </outline>
</glyph>
<glyph name="seven-ar" format="2">
  <advance width="499"/>
  <unicode hex="0667"/>
  <outline>
    <contour>
      <point x="465" y="666" type="curve"/>
      <point x="348" y="459"/>
      <point x="283" y="317"/>
      <point x="223" y="175" type="curve"/>
      <point x="263" y="147" type="line"/>
      <point x="236" y="328"/>
      <point x="185" y="537"/>
      <point x="118" y="680" type="curve"/>
      <point x="90" y="680"/>
      <point x="24" y="622"/>
      <point x="0" y="558" type="curve"/>
      <point x="109" y="414"/>
      <point x="180" y="243"/>
      <point x="232" y="-7" type="curve"/>
      <point x="242" y="-7"/>
      <point x="271" y="-6"/>
      <point x="284" y="11" type="curve"/>
      <point x="351" y="265"/>
      <point x="398" y="423"/>
      <point x="499" y="632" type="curve"/>
      <point x="496" y="646"/>
      <point x="485" y="666"/>
    </contour>
  </outline>
</glyph>
<glyph name="eight-ar" format="2">
  <advance width="499"/>
  <unicode hex="0668"/>
  <outline>
    <contour>
      <point x="236" y="526" type="line"/>
      <point x="263" y="345"/>
      <point x="314" y="136"/>
      <point x="381" y="-7" type="curve"/>
      <point x="409" y="-7"/>
      <point x="475" y="51"/>
      <point x="499" y="115" type="curve"/>
      <point x="390" y="259"/>
      <point x="319" y="430"/>
      <point x="267" y="680" type="curve"/>
      <point x="257" y="680"/>
      <point x="228" y="679"/>
      <point x="215" y="662" type="curve"/>
      <point x="148" y="408"/>
      <point x="101" y="250"/>
      <point x="0" y="41" type="curve"/>
      <point x="3" y="27"/>
      <point x="14" y="7"/>
      <point x="34" y="7" type="curve"/>
      <point x="151" y="214"/>
      <point x="216" y="356"/>
      <point x="276" y="498" type="curve"/>
    </contour>
  </outline>
</glyph>
<glyph name="alefabove-ar" format="2">
  <unicode hex="0670"/>
  <anchor x="43" y="529" name="_top"/>
  <anchor x="43" y="791" name="top"/>
  <outline>
    <contour>
      <point x="61" y="547" type="curve" smooth="yes"/>
      <point x="64" y="609"/>
      <point x="69" y="698"/>
      <point x="77" y="773" type="curve"/>
      <point x="46" y="773"/>
      <point x="17" y="764"/>
      <point x="10" y="761" type="curve" smooth="yes"/>
      <point x="6" y="759"/>
      <point x="6" y="756"/>
      <point x="6" y="753" type="curve" smooth="yes"/>
      <point x="6" y="746"/>
      <point x="22" y="657"/>
      <point x="25" y="537" type="curve"/>
      <point x="35" y="537"/>
      <point x="60" y="539"/>
    </contour>
  </outline>
</glyph>
<glyph name="endofayah-ar" format="2">
  <advance width="1250"/>
  <unicode hex="06DD"/>
  <outline>
    <contour>
      <point x="853" y="585" type="line"/>
      <point x="867" y="607" type="line"/>
      <point x="631" y="785" type="line" smooth="yes"/>
      <point x="628" y="787"/>
      <point x="626" y="788"/>
      <point x="624" y="788" type="curve" smooth="yes"/>
      <point x="621" y="788"/>
      <point x="619" y="787"/>
      <point x="616" y="785" type="curve" smooth="yes"/>
      <point x="377" y="607" type="line"/>
      <point x="391" y="584" type="line"/>
      <point x="624" y="759" type="line"/>
    </contour>
    <contour>
      <point x="722" y="539" type="line"/>
      <point x="750" y="531" type="line"/>
      <point x="750" y="679" type="line"/>
      <point x="722" y="696" type="line"/>
    </contour>
    <contour>
      <point x="623" y="-98" type="curve" smooth="yes"/>
      <point x="545" y="-98"/>
      <point x="468" y="-65"/>
      <point x="397" y="2" type="curve" smooth="yes"/>
      <point x="172" y="215" type="line"/>
      <point x="397" y="428" type="line" smooth="yes"/>
      <point x="467" y="494"/>
      <point x="545" y="528"/>
      <point x="623" y="528" type="curve" smooth="yes"/>
      <point x="699" y="528"/>
      <point x="776" y="495"/>
      <point x="847" y="428" type="curve" smooth="yes"/>
      <point x="1072" y="215" type="line"/>
      <point x="847" y="2" type="line" smooth="yes"/>
      <point x="777" y="-64"/>
      <point x="700" y="-98"/>
    </contour>
    <contour>
      <point x="778" y="514" type="line"/>
      <point x="806" y="501" type="line"/>
      <point x="806" y="637" type="line"/>
      <point x="778" y="653" type="line"/>
    </contour>
    <contour>
      <point x="666" y="553" type="line"/>
      <point x="694" y="549" type="line"/>
      <point x="694" y="720" type="line"/>
      <point x="666" y="737" type="line"/>
    </contour>
    <contour>
      <point x="610" y="557" type="line"/>
      <point x="638" y="556" type="line"/>
      <point x="638" y="769" type="line"/>
      <point x="610" y="769" type="line"/>
    </contour>
    <contour>
      <point x="554" y="550" type="line"/>
      <point x="582" y="554" type="line"/>
      <point x="582" y="738" type="line"/>
      <point x="554" y="722" type="line"/>
    </contour>
    <contour>
      <point x="498" y="532" type="line"/>
      <point x="526" y="541" type="line"/>
      <point x="526" y="697" type="line"/>
      <point x="498" y="679" type="line"/>
    </contour>
    <contour>
      <point x="442" y="504" type="line"/>
      <point x="470" y="517" type="line"/>
      <point x="470" y="656" type="line"/>
      <point x="442" y="640" type="line"/>
    </contour>
    <contour>
      <point x="123" y="215" type="line"/>
      <point x="374" y="-21" type="line"/>
      <point x="440" y="-87"/>
      <point x="527" y="-134"/>
      <point x="623" y="-134" type="curve" smooth="yes"/>
      <point x="720" y="-134"/>
      <point x="813" y="-76"/>
      <point x="870" y="-21" type="curve"/>
      <point x="1121" y="215" type="line"/>
      <point x="870" y="451" type="line"/>
      <point x="813" y="506"/>
      <point x="720" y="564"/>
      <point x="623" y="564" type="curve" smooth="yes"/>
      <point x="527" y="564"/>
      <point x="440" y="517"/>
      <point x="374" y="451" type="curve"/>
    </contour>
    <contour>
      <point x="853" y="-154" type="line"/>
      <point x="624" y="-328" type="line"/>
      <point x="391" y="-153" type="line"/>
      <point x="377" y="-177" type="line"/>
      <point x="616" y="-355" type="line" smooth="yes"/>
      <point x="619" y="-357"/>
      <point x="621" y="-358"/>
      <point x="624" y="-358" type="curve" smooth="yes"/>
      <point x="626" y="-358"/>
      <point x="628" y="-357"/>
      <point x="631" y="-355" type="curve" smooth="yes"/>
      <point x="867" y="-177" type="line"/>
    </contour>
    <contour>
      <point x="50" y="226" type="line"/>
      <point x="50" y="204" type="line"/>
      <point x="405" y="-124" type="line"/>
      <point x="402" y="-104" type="line"/>
      <point x="373" y="-179"/>
      <point x="307" y="-214"/>
      <point x="251" y="-214" type="curve" smooth="yes"/>
      <point x="200" y="-214"/>
      <point x="157" y="-185"/>
      <point x="157" y="-133" type="curve" smooth="yes"/>
      <point x="157" y="-83"/>
      <point x="196" y="-59"/>
      <point x="233" y="-59" type="curve" smooth="yes"/>
      <point x="265" y="-59"/>
      <point x="296" y="-78"/>
      <point x="296" y="-112" type="curve" smooth="yes"/>
      <point x="296" y="-144"/>
      <point x="273" y="-157"/>
      <point x="252" y="-157" type="curve" smooth="yes"/>
      <point x="235" y="-157"/>
      <point x="219" y="-148"/>
      <point x="219" y="-133" type="curve" smooth="yes"/>
      <point x="219" y="-122"/>
      <point x="229" y="-111"/>
      <point x="249" y="-111" type="curve"/>
      <point x="252" y="-85" type="line"/>
      <point x="211" y="-85"/>
      <point x="193" y="-108"/>
      <point x="193" y="-132" type="curve" smooth="yes"/>
      <point x="193" y="-157"/>
      <point x="213" y="-183"/>
      <point x="250" y="-183" type="curve" smooth="yes"/>
      <point x="292" y="-183"/>
      <point x="322" y="-154"/>
      <point x="322" y="-111" type="curve" smooth="yes"/>
      <point x="322" y="-67"/>
      <point x="286" y="-33"/>
      <point x="237" y="-33" type="curve" smooth="yes"/>
      <point x="171" y="-33"/>
      <point x="131" y="-77"/>
      <point x="131" y="-133" type="curve" smooth="yes"/>
      <point x="131" y="-196"/>
      <point x="182" y="-240"/>
      <point x="252" y="-240" type="curve" smooth="yes"/>
      <point x="352" y="-240"/>
      <point x="419" y="-141"/>
      <point x="425" y="-108" type="curve"/>
      <point x="80" y="215" type="line"/>
      <point x="425" y="538" type="line"/>
      <point x="419" y="571"/>
      <point x="352" y="670"/>
      <point x="252" y="670" type="curve" smooth="yes"/>
      <point x="182" y="670"/>
      <point x="131" y="626"/>
      <point x="131" y="563" type="curve" smooth="yes"/>
      <point x="131" y="507"/>
      <point x="171" y="463"/>
      <point x="237" y="463" type="curve" smooth="yes"/>
      <point x="286" y="463"/>
      <point x="322" y="497"/>
      <point x="322" y="541" type="curve" smooth="yes"/>
      <point x="322" y="584"/>
      <point x="292" y="613"/>
      <point x="250" y="613" type="curve" smooth="yes"/>
      <point x="213" y="613"/>
      <point x="193" y="587"/>
      <point x="193" y="562" type="curve" smooth="yes"/>
      <point x="193" y="538"/>
      <point x="211" y="515"/>
      <point x="252" y="515" type="curve"/>
      <point x="249" y="541" type="line"/>
      <point x="229" y="541"/>
      <point x="219" y="552"/>
      <point x="219" y="563" type="curve" smooth="yes"/>
      <point x="219" y="578"/>
      <point x="235" y="587"/>
      <point x="252" y="587" type="curve" smooth="yes"/>
      <point x="273" y="587"/>
      <point x="296" y="574"/>
      <point x="296" y="542" type="curve" smooth="yes"/>
      <point x="296" y="508"/>
      <point x="265" y="489"/>
      <point x="233" y="489" type="curve" smooth="yes"/>
      <point x="196" y="489"/>
      <point x="157" y="513"/>
      <point x="157" y="563" type="curve" smooth="yes"/>
      <point x="157" y="615"/>
      <point x="200" y="644"/>
      <point x="251" y="644" type="curve" smooth="yes"/>
      <point x="307" y="644"/>
      <point x="373" y="609"/>
      <point x="402" y="534" type="curve"/>
      <point x="405" y="554" type="line"/>
    </contour>
    <contour>
      <point x="1194" y="226" type="line"/>
      <point x="839" y="554" type="line"/>
      <point x="842" y="534" type="line"/>
      <point x="871" y="609"/>
      <point x="937" y="644"/>
      <point x="993" y="644" type="curve" smooth="yes"/>
      <point x="1044" y="644"/>
      <point x="1087" y="615"/>
      <point x="1087" y="563" type="curve" smooth="yes"/>
      <point x="1087" y="513"/>
      <point x="1048" y="489"/>
      <point x="1011" y="489" type="curve" smooth="yes"/>
      <point x="979" y="489"/>
      <point x="948" y="508"/>
      <point x="948" y="542" type="curve" smooth="yes"/>
      <point x="948" y="574"/>
      <point x="971" y="587"/>
      <point x="992" y="587" type="curve" smooth="yes"/>
      <point x="1009" y="587"/>
      <point x="1025" y="578"/>
      <point x="1025" y="563" type="curve" smooth="yes"/>
      <point x="1025" y="552"/>
      <point x="1015" y="541"/>
      <point x="995" y="541" type="curve"/>
      <point x="992" y="515" type="line"/>
      <point x="1033" y="515"/>
      <point x="1051" y="538"/>
      <point x="1051" y="562" type="curve" smooth="yes"/>
      <point x="1051" y="587"/>
      <point x="1031" y="613"/>
      <point x="994" y="613" type="curve" smooth="yes"/>
      <point x="952" y="613"/>
      <point x="922" y="584"/>
      <point x="922" y="541" type="curve" smooth="yes"/>
      <point x="922" y="497"/>
      <point x="958" y="463"/>
      <point x="1007" y="463" type="curve" smooth="yes"/>
      <point x="1073" y="463"/>
      <point x="1113" y="507"/>
      <point x="1113" y="563" type="curve" smooth="yes"/>
      <point x="1113" y="626"/>
      <point x="1062" y="670"/>
      <point x="992" y="670" type="curve" smooth="yes"/>
      <point x="892" y="670"/>
      <point x="825" y="571"/>
      <point x="819" y="538" type="curve"/>
      <point x="1164" y="215" type="line"/>
      <point x="819" y="-108" type="line"/>
      <point x="825" y="-141"/>
      <point x="892" y="-240"/>
      <point x="992" y="-240" type="curve" smooth="yes"/>
      <point x="1062" y="-240"/>
      <point x="1113" y="-196"/>
      <point x="1113" y="-133" type="curve" smooth="yes"/>
      <point x="1113" y="-77"/>
      <point x="1073" y="-33"/>
      <point x="1007" y="-33" type="curve" smooth="yes"/>
      <point x="958" y="-33"/>
      <point x="922" y="-67"/>
      <point x="922" y="-111" type="curve" smooth="yes"/>
      <point x="922" y="-154"/>
      <point x="952" y="-183"/>
      <point x="994" y="-183" type="curve" smooth="yes"/>
      <point x="1031" y="-183"/>
      <point x="1051" y="-157"/>
      <point x="1051" y="-132" type="curve" smooth="yes"/>
      <point x="1051" y="-108"/>
      <point x="1033" y="-85"/>
      <point x="992" y="-85" type="curve"/>
      <point x="995" y="-111" type="line"/>
      <point x="1015" y="-111"/>
      <point x="1025" y="-122"/>
      <point x="1025" y="-133" type="curve" smooth="yes"/>
      <point x="1025" y="-148"/>
      <point x="1009" y="-157"/>
      <point x="992" y="-157" type="curve" smooth="yes"/>
      <point x="971" y="-157"/>
      <point x="948" y="-144"/>
      <point x="948" y="-112" type="curve" smooth="yes"/>
      <point x="948" y="-78"/>
      <point x="979" y="-59"/>
      <point x="1011" y="-59" type="curve" smooth="yes"/>
      <point x="1048" y="-59"/>
      <point x="1087" y="-83"/>
      <point x="1087" y="-133" type="curve" smooth="yes"/>
      <point x="1087" y="-185"/>
      <point x="1044" y="-214"/>
      <point x="993" y="-214" type="curve" smooth="yes"/>
      <point x="937" y="-214"/>
      <point x="871" y="-179"/>
      <point x="842" y="-104" type="curve"/>
      <point x="839" y="-124" type="line"/>
      <point x="1194" y="204" type="line"/>
    </contour>
    <contour>
      <point x="722" y="-109" type="line"/>
      <point x="722" y="-266" type="line"/>
      <point x="750" y="-249" type="line"/>
      <point x="750" y="-101" type="line"/>
    </contour>
    <contour>
      <point x="778" y="-84" type="line"/>
      <point x="778" y="-223" type="line"/>
      <point x="806" y="-207" type="line"/>
      <point x="806" y="-71" type="line"/>
    </contour>
    <contour>
      <point x="666" y="-123" type="line"/>
      <point x="666" y="-307" type="line"/>
      <point x="694" y="-290" type="line"/>
      <point x="694" y="-119" type="line"/>
    </contour>
    <contour>
      <point x="610" y="-127" type="line"/>
      <point x="610" y="-339" type="line"/>
      <point x="638" y="-339" type="line"/>
      <point x="638" y="-126" type="line"/>
    </contour>
    <contour>
      <point x="554" y="-120" type="line"/>
      <point x="554" y="-292" type="line"/>
      <point x="582" y="-308" type="line"/>
      <point x="582" y="-124" type="line"/>
    </contour>
    <contour>
      <point x="498" y="-102" type="line"/>
      <point x="498" y="-249" type="line"/>
      <point x="526" y="-267" type="line"/>
      <point x="526" y="-111" type="line"/>
    </contour>
    <contour>
      <point x="442" y="-74" type="line"/>
      <point x="442" y="-210" type="line"/>
      <point x="470" y="-226" type="line"/>
      <point x="470" y="-87" type="line"/>
    </contour>
    <contour>
      <point x="157" y="-34" type="curve" smooth="yes"/>
      <point x="127" y="-34"/>
      <point x="104" y="-11"/>
      <point x="104" y="19" type="curve" smooth="yes"/>
      <point x="104" y="48"/>
      <point x="127" y="71"/>
      <point x="157" y="71" type="curve" smooth="yes"/>
      <point x="186" y="71"/>
      <point x="209" y="48"/>
      <point x="209" y="19" type="curve" smooth="yes"/>
      <point x="209" y="-11"/>
      <point x="186" y="-34"/>
    </contour>
    <contour>
      <point x="156" y="-60" type="curve" smooth="yes"/>
      <point x="199" y="-60"/>
      <point x="234" y="-25"/>
      <point x="234" y="18" type="curve" smooth="yes"/>
      <point x="234" y="61"/>
      <point x="199" y="96"/>
      <point x="156" y="96" type="curve" smooth="yes"/>
      <point x="113" y="96"/>
      <point x="78" y="61"/>
      <point x="78" y="18" type="curve" smooth="yes"/>
      <point x="78" y="-25"/>
      <point x="113" y="-60"/>
    </contour>
    <contour>
      <point x="157" y="464" type="curve" smooth="yes"/>
      <point x="186" y="464"/>
      <point x="209" y="441"/>
      <point x="209" y="411" type="curve" smooth="yes"/>
      <point x="209" y="382"/>
      <point x="186" y="359"/>
      <point x="157" y="359" type="curve" smooth="yes"/>
      <point x="127" y="359"/>
      <point x="104" y="382"/>
      <point x="104" y="411" type="curve" smooth="yes"/>
      <point x="104" y="441"/>
      <point x="127" y="464"/>
    </contour>
    <contour>
      <point x="156" y="490" type="curve" smooth="yes"/>
      <point x="113" y="490"/>
      <point x="78" y="455"/>
      <point x="78" y="412" type="curve" smooth="yes"/>
      <point x="78" y="369"/>
      <point x="113" y="334"/>
      <point x="156" y="334" type="curve" smooth="yes"/>
      <point x="199" y="334"/>
      <point x="234" y="369"/>
      <point x="234" y="412" type="curve" smooth="yes"/>
      <point x="234" y="455"/>
      <point x="199" y="490"/>
    </contour>
    <contour>
      <point x="1087" y="464" type="curve" smooth="yes"/>
      <point x="1117" y="464"/>
      <point x="1140" y="441"/>
      <point x="1140" y="411" type="curve" smooth="yes"/>
      <point x="1140" y="382"/>
      <point x="1117" y="359"/>
      <point x="1087" y="359" type="curve" smooth="yes"/>
      <point x="1058" y="359"/>
      <point x="1035" y="382"/>
      <point x="1035" y="411" type="curve" smooth="yes"/>
      <point x="1035" y="441"/>
      <point x="1058" y="464"/>
    </contour>
    <contour>
      <point x="1088" y="490" type="curve" smooth="yes"/>
      <point x="1045" y="490"/>
      <point x="1010" y="455"/>
      <point x="1010" y="412" type="curve" smooth="yes"/>
      <point x="1010" y="369"/>
      <point x="1045" y="334"/>
      <point x="1088" y="334" type="curve" smooth="yes"/>
      <point x="1131" y="334"/>
      <point x="1166" y="369"/>
      <point x="1166" y="412" type="curve" smooth="yes"/>
      <point x="1166" y="455"/>
      <point x="1131" y="490"/>
    </contour>
    <contour>
      <point x="1087" y="-34" type="curve" smooth="yes"/>
      <point x="1058" y="-34"/>
      <point x="1035" y="-11"/>
      <point x="1035" y="19" type="curve" smooth="yes"/>
      <point x="1035" y="48"/>
      <point x="1058" y="71"/>
      <point x="1087" y="71" type="curve" smooth="yes"/>
      <point x="1117" y="71"/>
      <point x="1140" y="48"/>
      <point x="1140" y="19" type="curve" smooth="yes"/>
      <point x="1140" y="-11"/>
      <point x="1117" y="-34"/>
    </contour>
    <contour>
      <point x="1088" y="-60" type="curve" smooth="yes"/>
      <point x="1131" y="-60"/>
      <point x="1166" y="-25"/>
      <point x="1166" y="18" type="curve" smooth="yes"/>
      <point x="1166" y="61"/>
      <point x="1131" y="96"/>
      <point x="1088" y="96" type="curve" smooth="yes"/>
      <point x="1045" y="96"/>
      <point x="1010" y="61"/>
      <point x="1010" y="18" type="curve" smooth="yes"/>
      <point x="1010" y="-25"/>
      <point x="1045" y="-60"/>
    </contour>
  </outline>
</glyph>
<glyph name="wawSmall-ar" format="2">
  <advance width="247"/>
  <unicode hex="06E5"/>
  <anchor x="48" y="284" name="top"/>
  <outline>
    <contour>
      <point x="155" y="173" type="curve" smooth="yes"/>
      <point x="155" y="167"/>
      <point x="143" y="167"/>
      <point x="134" y="167" type="curve" smooth="yes"/>
      <point x="131" y="167"/>
      <point x="111" y="167"/>
      <point x="114" y="172" type="curve" smooth="yes"/>
      <point x="125" y="188"/>
      <point x="144" y="204"/>
      <point x="148" y="204" type="curve" smooth="yes"/>
      <point x="152" y="204"/>
      <point x="155" y="186"/>
    </contour>
    <contour>
      <point x="139" y="123" type="curve" smooth="yes"/>
      <point x="151" y="123"/>
      <point x="145" y="116"/>
      <point x="125" y="94" type="curve" smooth="yes"/>
      <point x="102" y="68"/>
      <point x="63" y="37"/>
      <point x="-1" y="-12" type="curve"/>
      <point x="-1" y="-15"/>
      <point x="1" y="-22"/>
      <point x="6" y="-25" type="curve"/>
      <point x="86" y="16"/>
      <point x="162" y="60"/>
      <point x="189" y="87" type="curve" smooth="yes"/>
      <point x="196" y="94"/>
      <point x="196" y="132"/>
      <point x="196" y="160" type="curve" smooth="yes"/>
      <point x="196" y="187"/>
      <point x="191" y="250"/>
      <point x="185" y="271" type="curve" smooth="yes"/>
      <point x="184" y="274"/>
      <point x="183" y="274"/>
      <point x="181" y="274" type="curve" smooth="yes"/>
      <point x="175" y="274"/>
      <point x="153" y="270"/>
      <point x="145" y="267" type="curve"/>
      <point x="125" y="250"/>
      <point x="64" y="184"/>
      <point x="46" y="160" type="curve"/>
      <point x="46" y="147"/>
      <point x="47" y="131"/>
      <point x="53" y="122" type="curve"/>
      <point x="76" y="122"/>
      <point x="115" y="123"/>
    </contour>
  </outline>
</glyph>
<glyph name="leftarrowheadabove-ar" format="2">
  <unicode hex="08F7"/>
  <anchor x="86" y="539" name="_top"/>
  <anchor x="97" y="784" name="top"/>
  <anchor x="-14" y="729" name="top_alef"/>
  <outline>
    <contour>
      <point x="95" y="743" type="curve" smooth="yes"/>
      <point x="98" y="749"/>
      <point x="53" y="766"/>
      <point x="50" y="761" type="curve" smooth="yes"/>
      <point x="30" y="724"/>
      <point x="17" y="655"/>
      <point x="17" y="622" type="curve" smooth="yes"/>
      <point x="17" y="614"/>
      <point x="18" y="606"/>
      <point x="20" y="604" type="curve"/>
      <point x="35" y="586"/>
      <point x="116" y="581"/>
      <point x="136" y="581" type="curve" smooth="yes"/>
      <point x="150" y="581"/>
      <point x="157" y="582"/>
      <point x="159" y="583" type="curve" smooth="yes"/>
      <point x="163" y="586"/>
      <point x="175" y="611"/>
      <point x="176" y="627" type="curve"/>
      <point x="124" y="626"/>
      <point x="69" y="631"/>
      <point x="64" y="638" type="curve" smooth="yes"/>
      <point x="63" y="639"/>
      <point x="63" y="641"/>
      <point x="63" y="644" type="curve" smooth="yes"/>
      <point x="63" y="665"/>
      <point x="86" y="723"/>
    </contour>
  </outline>
</glyph>
<glyph name="Delta" format="2">
  <advance width="621"/>
  <unicode hex="2206"/>
  <outline>
    <contour>
      <point x="428" y="59" type="curve"/>
      <point x="388" y="161"/>
      <point x="324" y="316"/>
      <point x="255" y="481" type="curve"/>
      <point x="340" y="664" type="line"/>
      <point x="419" y="444"/>
      <point x="524" y="204"/>
      <point x="600" y="37" type="curve"/>
      <point x="586" y="1" type="line"/>
      <point x="520" y="3"/>
      <point x="346" y="3"/>
      <point x="287" y="3" type="curve" smooth="yes"/>
      <point x="143" y="3"/>
      <point x="113" y="3"/>
      <point x="35" y="0" type="curve"/>
      <point x="21" y="37" type="line"/>
      <point x="85" y="153"/>
      <point x="222" y="471"/>
      <point x="289" y="664" type="curve"/>
      <point x="340" y="664" type="line"/>
      <point x="298" y="538" type="line"/>
      <point x="249" y="408"/>
      <point x="164" y="177"/>
      <point x="132" y="59" type="curve"/>
      <point x="182" y="61"/>
      <point x="232" y="62"/>
      <point x="282" y="62" type="curve" smooth="yes"/>
      <point x="331" y="62"/>
      <point x="379" y="61"/>
    </contour>
  </outline>
</glyph>
<glyph name="allah-ar" format="2">
  <advance width="1105"/>
  <unicode hex="FDF2"/>
  <anchor x="898" y="0" name="caret_1"/>
  <anchor x="702" y="0" name="caret_2"/>
  <anchor x="532" y="0" name="caret_3"/>
  <anchor x="984" y="634" name="top_1"/>
  <anchor x="751" y="593" name="top_2"/>
  <anchor x="534" y="548" name="top_3"/>
  <anchor x="232" y="421" name="top_4"/>
  <outline>
    <contour>
      <point x="408" y="214" type="curve" smooth="yes"/>
      <point x="408" y="149"/>
      <point x="402" y="142"/>
      <point x="349" y="140" type="curve" smooth="yes"/>
      <point x="302" y="139"/>
      <point x="233" y="138"/>
      <point x="235" y="150" type="curve" smooth="yes"/>
      <point x="243" y="198"/>
      <point x="365" y="296"/>
      <point x="394" y="296" type="curve" smooth="yes"/>
      <point x="399" y="296"/>
      <point x="408" y="240"/>
    </contour>
    <contour>
      <point x="1037" y="586" type="curve"/>
      <point x="1032" y="593"/>
      <point x="1028" y="597"/>
      <point x="1025" y="597" type="curve" smooth="yes"/>
      <point x="1009" y="597"/>
      <point x="945" y="582"/>
      <point x="906" y="554" type="curve"/>
      <point x="921" y="438"/>
      <point x="949" y="219"/>
      <point x="958" y="-21" type="curve"/>
      <point x="975" y="-23"/>
      <point x="1016" y="-18"/>
      <point x="1025" y="-6" type="curve"/>
      <point x="1025" y="6"/>
      <point x="1026" y="101"/>
      <point x="1026" y="173" type="curve" smooth="yes"/>
      <point x="1025" y="262"/>
      <point x="1038" y="486"/>
    </contour>
    <contour>
      <point x="846" y="192" type="curve" smooth="yes"/>
      <point x="845" y="300"/>
      <point x="843" y="427"/>
      <point x="839" y="558" type="curve"/>
      <point x="834" y="569"/>
      <point x="830" y="573"/>
      <point x="824" y="573" type="curve" smooth="yes"/>
      <point x="805" y="573"/>
      <point x="729" y="541"/>
      <point x="708" y="522" type="curve"/>
      <point x="738" y="418"/>
      <point x="761" y="272"/>
      <point x="761" y="180" type="curve" smooth="yes"/>
      <point x="761" y="144"/>
      <point x="733" y="140"/>
      <point x="720" y="140" type="curve" smooth="yes"/>
      <point x="677" y="140" type="line" smooth="yes"/>
      <point x="665" y="140"/>
      <point x="653" y="142"/>
      <point x="652" y="190" type="curve" smooth="yes"/>
      <point x="649" y="350"/>
      <point x="647" y="393"/>
      <point x="640" y="518" type="curve"/>
      <point x="637" y="525"/>
      <point x="632" y="533"/>
      <point x="625" y="533" type="curve" smooth="yes"/>
      <point x="609" y="533"/>
      <point x="538" y="506"/>
      <point x="509" y="482" type="curve"/>
      <point x="549" y="360"/>
      <point x="569" y="252"/>
      <point x="569" y="190" type="curve" smooth="yes"/>
      <point x="569" y="144"/>
      <point x="565" y="140"/>
      <point x="528" y="140" type="curve" smooth="yes"/>
      <point x="516" y="140" type="line" smooth="yes"/>
      <point x="502" y="140"/>
      <point x="488" y="145"/>
      <point x="487" y="202" type="curve" smooth="yes"/>
      <point x="486" y="238"/>
      <point x="489" y="318"/>
      <point x="484" y="378" type="curve"/>
      <point x="467" y="397"/>
      <point x="399" y="445"/>
      <point x="389" y="445" type="curve" smooth="yes"/>
      <point x="333" y="445"/>
      <point x="61" y="197"/>
      <point x="61" y="143" type="curve" smooth="yes"/>
      <point x="61" y="111"/>
      <point x="72" y="43"/>
      <point x="95" y="0" type="curve"/>
      <point x="230" y="0"/>
      <point x="365" y="0"/>
      <point x="500" y="0" type="curve" smooth="yes"/>
      <point x="752" y="0" type="line" smooth="yes"/>
      <point x="828" y="0"/>
      <point x="847" y="84"/>
    </contour>
  </outline>
</glyph>
<glyph name="_dot1Above" format="2">
  <anchor x="109" y="289" name="_top"/>
  <outline>
    <contour>
      <point x="34" y="325" type="curve"/>
      <point x="60" y="316"/>
      <point x="123" y="316"/>
      <point x="181" y="329" type="curve"/>
      <point x="194" y="401"/>
      <point x="194" y="450"/>
      <point x="181" y="487" type="curve"/>
      <point x="151" y="498"/>
      <point x="95" y="497"/>
      <point x="34" y="483" type="curve"/>
      <point x="20" y="410"/>
      <point x="21" y="363"/>
    </contour>
  </outline>
</glyph>
<glyph name="ain-ar.medi.flat" format="2">
  <advance width="433"/>
  <anchor x="176" y="-30" name="bottom"/>
  <anchor x="433" y="0" name="entry"/>
  <anchor x="0" y="205" name="exit"/>
  <anchor x="191" y="780" name="top"/>
  <outline>
    <contour>
      <point x="220" y="254" type="curve" smooth="yes"/>
      <point x="220" y="370"/>
      <point x="221" y="386"/>
      <point x="248" y="390" type="curve" smooth="yes"/>
      <point x="263" y="393"/>
      <point x="305" y="395"/>
      <point x="370" y="395" type="curve" smooth="yes"/>
      <point x="380" y="395"/>
      <point x="386" y="397"/>
      <point x="392" y="408" type="curve" smooth="yes"/>
      <point x="404" y="431"/>
      <point x="412" y="452"/>
      <point x="416" y="480" type="curve"/>
      <point x="356" y="552"/>
      <point x="295" y="641"/>
      <point x="247" y="726" type="curve"/>
      <point x="233" y="734"/>
      <point x="184" y="759"/>
      <point x="170" y="759" type="curve" smooth="yes"/>
      <point x="169" y="759"/>
      <point x="168" y="759"/>
      <point x="167" y="758" type="curve"/>
      <point x="111" y="677"/>
      <point x="26" y="577"/>
      <point x="-56" y="494" type="curve"/>
      <point x="-42" y="453"/>
      <point x="-25" y="415"/>
      <point x="-10" y="405" type="curve"/>
      <point x="11" y="404"/>
      <point x="35" y="404"/>
      <point x="59" y="404" type="curve" smooth="yes"/>
      <point x="108" y="404"/>
      <point x="145" y="397"/>
      <point x="148" y="376" type="curve" smooth="yes"/>
      <point x="151" y="360"/>
      <point x="149" y="345"/>
      <point x="135" y="345" type="curve" smooth="yes"/>
      <point x="121" y="345"/>
      <point x="-10" y="345"/>
      <point x="-20" y="345" type="curve"/>
      <point x="-20" y="205" type="line"/>
      <point x="-12" y="205"/>
      <point x="119" y="205"/>
      <point x="129" y="205" type="curve" smooth="yes"/>
      <point x="144" y="205"/>
      <point x="150" y="200"/>
      <point x="153" y="138" type="curve" smooth="yes"/>
      <point x="156" y="54"/>
      <point x="165" y="0"/>
      <point x="194" y="0" type="curve" smooth="yes"/>
      <point x="453" y="0" type="line"/>
      <point x="453" y="140" type="line"/>
      <point x="258" y="140" type="line" smooth="yes"/>
      <point x="236" y="140"/>
      <point x="220" y="154"/>
    </contour>
    <contour>
      <point x="219" y="397" type="line"/>
      <point x="218" y="431"/>
      <point x="195" y="498"/>
      <point x="138" y="499" type="curve" smooth="yes"/>
      <point x="134" y="499"/>
      <point x="134" y="500"/>
      <point x="135" y="502" type="curve" smooth="yes"/>
      <point x="162" y="532"/>
      <point x="182" y="559"/>
      <point x="200" y="579" type="curve" smooth="yes"/>
      <point x="207" y="587"/>
      <point x="209" y="589"/>
      <point x="210" y="589" type="curve" smooth="yes"/>
      <point x="211" y="589"/>
      <point x="213" y="587"/>
      <point x="215" y="584" type="curve" smooth="yes"/>
      <point x="227" y="569"/>
      <point x="242" y="546"/>
      <point x="267" y="512" type="curve" smooth="yes"/>
      <point x="269" y="509"/>
      <point x="271" y="506"/>
      <point x="271" y="504" type="curve" smooth="yes"/>
      <point x="271" y="502"/>
      <point x="269" y="501"/>
      <point x="265" y="501" type="curve" smooth="yes"/>
      <point x="221" y="501"/>
      <point x="149" y="476"/>
      <point x="149" y="410" type="curve"/>
    </contour>
  </outline>
</glyph>
<glyph name="alef-ar.fina.low" format="2">
  <advance width="276"/>
  <anchor x="139" y="-368" name="bottom"/>
  <anchor x="276" y="0" name="entry"/>
  <anchor x="106" y="424" name="top"/>
  <outline>
    <contour>
      <point x="55" y="347" type="curve"/>
      <point x="81" y="122"/>
      <point x="106" y="-112"/>
      <point x="108" y="-344" type="curve"/>
      <point x="123" y="-344"/>
      <point x="161" y="-342"/>
      <point x="172" y="-330" type="curve"/>
      <point x="174" y="-291"/>
      <point x="173" y="-207"/>
      <point x="183" y="-207" type="curve" smooth="yes"/>
      <point x="296" y="-207" type="line"/>
      <point x="296" y="-68" type="line"/>
      <point x="195" y="-68"/>
      <point x="177" y="-66"/>
      <point x="177" y="-18" type="curve" smooth="yes"/>
      <point x="177" y="113"/>
      <point x="184" y="302"/>
      <point x="186" y="380" type="curve"/>
      <point x="181" y="387"/>
      <point x="177" y="391"/>
      <point x="174" y="391" type="curve" smooth="yes"/>
      <point x="151" y="391"/>
      <point x="80" y="367"/>
    </contour>
  </outline>
</glyph>
<glyph name="alef-ar.fina.wideshort.low" format="2">
  <advance width="276"/>
  <anchor x="231" y="-246" name="bottom"/>
  <anchor x="276" y="0" name="entry"/>
  <anchor x="105" y="424" name="top"/>
  <outline>
    <contour>
      <point x="55" y="347" type="curve"/>
      <point x="87" y="122"/>
      <point x="97" y="-418"/>
      <point x="108" y="-418" type="curve"/>
      <point x="172" y="-418" type="line"/>
      <point x="171" y="-389"/>
      <point x="173" y="-207"/>
      <point x="183" y="-207" type="curve" smooth="yes"/>
      <point x="296" y="-207" type="line"/>
      <point x="296" y="-68" type="line"/>
      <point x="195" y="-68"/>
      <point x="177" y="-66"/>
      <point x="177" y="-18" type="curve" smooth="yes"/>
      <point x="177" y="40"/>
      <point x="178" y="109"/>
      <point x="180" y="175" type="curve" smooth="yes"/>
      <point x="182" y="258"/>
      <point x="185" y="336"/>
      <point x="186" y="380" type="curve"/>
      <point x="181" y="387"/>
      <point x="177" y="391"/>
      <point x="174" y="391" type="curve" smooth="yes"/>
      <point x="151" y="391"/>
      <point x="80" y="367"/>
    </contour>
  </outline>
</glyph>
<glyph name="alef-ar.ss08" format="2">
  <advance width="254"/>
  <anchor x="141" y="7" name="bottom"/>
  <anchor x="198" y="275" name="center"/>
  <anchor x="125" y="566" name="top"/>
  <outline>
    <contour>
      <point x="186" y="587" type="curve"/>
      <point x="181" y="594"/>
      <point x="177" y="598"/>
      <point x="174" y="598" type="curve" smooth="yes"/>
      <point x="158" y="598"/>
      <point x="94" y="582"/>
      <point x="55" y="554" type="curve"/>
      <point x="70" y="424"/>
      <point x="92" y="228"/>
      <point x="107" y="-19" type="curve"/>
      <point x="124" y="-21"/>
      <point x="165" y="-16"/>
      <point x="174" y="-4" type="curve"/>
      <point x="174" y="9"/>
      <point x="175" y="87"/>
      <point x="175" y="161" type="curve" smooth="yes"/>
      <point x="174" y="253"/>
      <point x="187" y="483"/>
    </contour>
  </outline>
</glyph>
<glyph name="alefHamzaabove-ar.fina.allah" format="2">
  <advance width="244"/>
  <anchor x="104" y="-71" name="bottom"/>
  <anchor x="244" y="0" name="entry"/>
  <anchor x="83" y="631" name="top"/>
  <outline>
    <component base="alef-ar.fina.allah"/>
    <contour>
      <point x="148" y="380" type="line"/>
      <point x="149" y="407"/>
      <point x="150" y="410"/>
      <point x="154" y="410" type="curve" smooth="yes"/>
      <point x="252" y="410" type="line"/>
      <point x="252" y="419"/>
      <point x="251" y="443"/>
      <point x="247" y="443" type="curve" smooth="yes"/>
      <point x="155" y="443" type="line" smooth="yes"/>
      <point x="148" y="443"/>
      <point x="152" y="465"/>
      <point x="158" y="465" type="curve" smooth="yes"/>
      <point x="252" y="465" type="line"/>
      <point x="252" y="475"/>
      <point x="251" y="498"/>
      <point x="247" y="498" type="curve" smooth="yes"/>
      <point x="155" y="498" type="line" smooth="yes"/>
      <point x="150" y="498"/>
      <point x="153" y="521"/>
      <point x="159" y="521" type="curve" smooth="yes"/>
      <point x="252" y="521" type="line"/>
      <point x="252" y="530"/>
      <point x="251" y="554"/>
      <point x="247" y="554" type="curve" smooth="yes"/>
      <point x="157" y="554" type="line" smooth="yes"/>
      <point x="154" y="554"/>
      <point x="153" y="554"/>
      <point x="154" y="587" type="curve"/>
      <point x="132" y="554" type="line"/>
      <point x="126" y="410" type="line"/>
    </contour>
  </outline>
</glyph>
<glyph name="alefMaksura-ar.fina" format="2">
  <advance width="842"/>
  <anchor x="642" y="-110" name="bottom"/>
  <anchor x="842" y="0" name="entry"/>
  <anchor x="429" y="369" name="top"/>
  <outline>
    <contour>
      <point x="472" y="38" type="curve" smooth="yes"/>
      <point x="475" y="36"/>
      <point x="481" y="32"/>
      <point x="478" y="28" type="curve" smooth="yes"/>
      <point x="410" y="-73"/>
      <point x="281" y="-188"/>
      <point x="119" y="-188" type="curve" smooth="yes"/>
      <point x="15" y="-188"/>
      <point x="-42" y="-144"/>
      <point x="-42" y="-41" type="curve" smooth="yes"/>
      <point x="-42" y="-29"/>
      <point x="-42" y="-17"/>
      <point x="-40" y="-3" type="curve"/>
      <point x="-45" y="4"/>
      <point x="-52" y="6"/>
      <point x="-59" y="6" type="curve" smooth="yes"/>
      <point x="-62" y="6"/>
      <point x="-65" y="6"/>
      <point x="-68" y="5" type="curve"/>
      <point x="-90" y="-45"/>
      <point x="-100" y="-93"/>
      <point x="-100" y="-137" type="curve" smooth="yes"/>
      <point x="-100" y="-248"/>
      <point x="-30" y="-328"/>
      <point x="111" y="-328" type="curve" smooth="yes"/>
      <point x="256" y="-328"/>
      <point x="439" y="-231"/>
      <point x="584" y="-5" type="curve" smooth="yes"/>
      <point x="596" y="14"/>
      <point x="617" y="54"/>
      <point x="617" y="78" type="curve" smooth="yes"/>
      <point x="617" y="86"/>
      <point x="615" y="92"/>
      <point x="611" y="96" type="curve" smooth="yes"/>
      <point x="547" y="154"/>
      <point x="418" y="192"/>
      <point x="418" y="208" type="curve" smooth="yes"/>
      <point x="418" y="215"/>
      <point x="530" y="253"/>
      <point x="608" y="253" type="curve" smooth="yes"/>
      <point x="658" y="253"/>
      <point x="672" y="222"/>
      <point x="676" y="180" type="curve" smooth="yes"/>
      <point x="680" y="140"/>
      <point x="696" y="0"/>
      <point x="727" y="0" type="curve" smooth="yes"/>
      <point x="862" y="0" type="line"/>
      <point x="862" y="140" type="line"/>
      <point x="832" y="140"/>
      <point x="803" y="140"/>
      <point x="775" y="140" type="curve" smooth="yes"/>
      <point x="755" y="140"/>
      <point x="750" y="158"/>
      <point x="743" y="238" type="curve" smooth="yes"/>
      <point x="732" y="360"/>
      <point x="719" y="388"/>
      <point x="664" y="388" type="curve" smooth="yes"/>
      <point x="578" y="388"/>
      <point x="441" y="318"/>
      <point x="293" y="238" type="curve"/>
      <point x="293" y="204"/>
      <point x="302" y="117"/>
      <point x="321" y="96" type="curve"/>
      <point x="378" y="83"/>
      <point x="404" y="77"/>
    </contour>
  </outline>
</glyph>
<glyph name="approxequal.rtl" format="2">
  <advance width="571"/>
  <outline>
    <contour>
      <point x="172" y="346" type="curve" smooth="yes"/>
      <point x="278" y="346"/>
      <point x="313" y="441"/>
      <point x="411" y="441" type="curve"/>
      <point x="441" y="430"/>
      <point x="491" y="385"/>
      <point x="517" y="361" type="curve"/>
      <point x="549" y="381" type="line"/>
      <point x="507" y="441"/>
      <point x="444" y="530"/>
      <point x="368" y="530" type="curve" smooth="yes"/>
      <point x="261" y="530"/>
      <point x="237" y="445"/>
      <point x="150" y="445" type="curve"/>
      <point x="111" y="455"/>
      <point x="55" y="488"/>
      <point x="26" y="515" type="curve"/>
      <point x="-2" y="495" type="line"/>
      <point x="47" y="414"/>
      <point x="110" y="346"/>
    </contour>
    <contour>
      <point x="172" y="146" type="curve" smooth="yes"/>
      <point x="278" y="146"/>
      <point x="313" y="241"/>
      <point x="411" y="241" type="curve"/>
      <point x="441" y="230"/>
      <point x="491" y="185"/>
      <point x="517" y="161" type="curve"/>
      <point x="549" y="181" type="line"/>
      <point x="507" y="241"/>
      <point x="444" y="330"/>
      <point x="368" y="330" type="curve" smooth="yes"/>
      <point x="261" y="330"/>
      <point x="237" y="245"/>
      <point x="150" y="245" type="curve"/>
      <point x="111" y="255"/>
      <point x="55" y="288"/>
      <point x="26" y="315" type="curve"/>
      <point x="-2" y="295" type="line"/>
      <point x="47" y="214"/>
      <point x="110" y="146"/>
    </contour>
  </outline>
</glyph>
<glyph name="behDotless-ar.medi" format="2">
  <advance width="319"/>
  <anchor x="133" y="-30" name="bottom"/>
  <anchor x="319" y="0" name="entry"/>
  <anchor x="0" y="0" name="exit"/>
  <anchor x="109" y="360" name="top"/>
  <outline>
    <contour>
      <point x="281" y="140" type="line" smooth="yes"/>
      <point x="260" y="140"/>
      <point x="247" y="143"/>
      <point x="244" y="177" type="curve" smooth="yes"/>
      <point x="240" y="225"/>
      <point x="228" y="279"/>
      <point x="213" y="332" type="curve" smooth="yes"/>
      <point x="211" y="340"/>
      <point x="207" y="345"/>
      <point x="195" y="345" type="curve"/>
      <point x="186" y="341"/>
      <point x="140" y="312"/>
      <point x="110" y="288" type="curve"/>
      <point x="136" y="252"/>
      <point x="168" y="198"/>
      <point x="168" y="169" type="curve" smooth="yes"/>
      <point x="168" y="152"/>
      <point x="161" y="140"/>
      <point x="151" y="140" type="curve" smooth="yes"/>
      <point x="-20" y="140" type="line"/>
      <point x="-20" y="0" type="line"/>
      <point x="339" y="0" type="line"/>
      <point x="339" y="140" type="line"/>
    </contour>
  </outline>
</glyph>
<glyph name="endofayah-ar.2" format="2">
  <advance width="1500"/>
  <outline>
    <contour>
      <point x="1023" y="704" type="line"/>
      <point x="1040" y="724" type="line"/>
      <point x="753" y="941" type="line" smooth="yes"/>
      <point x="750" y="943"/>
      <point x="747" y="944"/>
      <point x="744" y="944" type="curve" smooth="yes"/>
      <point x="741" y="944"/>
      <point x="738" y="943"/>
      <point x="735" y="941" type="curve" smooth="yes"/>
      <point x="444" y="724" type="line"/>
      <point x="461" y="703" type="line"/>
      <point x="744" y="915" type="line"/>
    </contour>
    <contour>
      <point x="864" y="642" type="line"/>
      <point x="892" y="632" type="line"/>
      <point x="892" y="812" type="line"/>
      <point x="864" y="832" type="line"/>
    </contour>
    <contour>
      <point x="174" y="420" type="curve" smooth="yes"/>
      <point x="138" y="420"/>
      <point x="107" y="452"/>
      <point x="107" y="488" type="curve" smooth="yes"/>
      <point x="107" y="525"/>
      <point x="138" y="554"/>
      <point x="174" y="554" type="curve" smooth="yes"/>
      <point x="213" y="554"/>
      <point x="241" y="524"/>
      <point x="241" y="488" type="curve" smooth="yes"/>
      <point x="241" y="448"/>
      <point x="211" y="420"/>
    </contour>
    <contour>
      <point x="743" y="-140" type="curve" smooth="yes"/>
      <point x="647" y="-140"/>
      <point x="552" y="-98"/>
      <point x="464" y="-15" type="curve" smooth="yes"/>
      <point x="184" y="248" type="line"/>
      <point x="464" y="511" type="line" smooth="yes"/>
      <point x="551" y="593"/>
      <point x="646" y="636"/>
      <point x="743" y="636" type="curve" smooth="yes"/>
      <point x="838" y="636"/>
      <point x="932" y="594"/>
      <point x="1020" y="511" type="curve" smooth="yes"/>
      <point x="1300" y="248" type="line"/>
      <point x="1020" y="-15" type="line" smooth="yes"/>
      <point x="933" y="-97"/>
      <point x="839" y="-140"/>
    </contour>
    <contour>
      <point x="930" y="611" type="line"/>
      <point x="958" y="595" type="line"/>
      <point x="958" y="760" type="line"/>
      <point x="930" y="781" type="line"/>
    </contour>
    <contour>
      <point x="798" y="659" type="line"/>
      <point x="826" y="654" type="line"/>
      <point x="826" y="861" type="line"/>
      <point x="798" y="882" type="line"/>
    </contour>
    <contour>
      <point x="730" y="664" type="line"/>
      <point x="758" y="663" type="line"/>
      <point x="758" y="921" type="line"/>
      <point x="730" y="921" type="line"/>
    </contour>
    <contour>
      <point x="662" y="655" type="line"/>
      <point x="690" y="660" type="line"/>
      <point x="690" y="884" type="line"/>
      <point x="662" y="864" type="line"/>
    </contour>
    <contour>
      <point x="596" y="634" type="line"/>
      <point x="624" y="644" type="line"/>
      <point x="624" y="833" type="line"/>
      <point x="596" y="813" type="line"/>
    </contour>
    <contour>
      <point x="530" y="599" type="line"/>
      <point x="558" y="614" type="line"/>
      <point x="558" y="785" type="line"/>
      <point x="530" y="764" type="line"/>
    </contour>
    <contour>
      <point x="175" y="393" type="curve" smooth="yes"/>
      <point x="228" y="393"/>
      <point x="270" y="435"/>
      <point x="270" y="488" type="curve" smooth="yes"/>
      <point x="270" y="541"/>
      <point x="228" y="583"/>
      <point x="175" y="583" type="curve" smooth="yes"/>
      <point x="122" y="583"/>
      <point x="80" y="541"/>
      <point x="80" y="488" type="curve" smooth="yes"/>
      <point x="80" y="435"/>
      <point x="122" y="393"/>
    </contour>
    <contour>
      <point x="1310" y="420" type="curve" smooth="yes"/>
      <point x="1273" y="420"/>
      <point x="1243" y="448"/>
      <point x="1243" y="488" type="curve" smooth="yes"/>
      <point x="1243" y="524"/>
      <point x="1271" y="554"/>
      <point x="1310" y="554" type="curve" smooth="yes"/>
      <point x="1346" y="554"/>
      <point x="1377" y="525"/>
      <point x="1377" y="488" type="curve" smooth="yes"/>
      <point x="1377" y="452"/>
      <point x="1346" y="420"/>
    </contour>
    <contour>
      <point x="1309" y="393" type="curve" smooth="yes"/>
      <point x="1362" y="393"/>
      <point x="1404" y="435"/>
      <point x="1404" y="488" type="curve" smooth="yes"/>
      <point x="1404" y="541"/>
      <point x="1362" y="583"/>
      <point x="1309" y="583" type="curve" smooth="yes"/>
      <point x="1256" y="583"/>
      <point x="1214" y="541"/>
      <point x="1214" y="488" type="curve" smooth="yes"/>
      <point x="1214" y="435"/>
      <point x="1256" y="393"/>
    </contour>
    <contour>
      <point x="1437" y="255" type="line"/>
      <point x="1001" y="658" type="line"/>
      <point x="1009" y="636" type="line"/>
      <point x="1038" y="708"/>
      <point x="1114" y="774"/>
      <point x="1190" y="774" type="curve" smooth="yes"/>
      <point x="1262" y="774"/>
      <point x="1311" y="731"/>
      <point x="1311" y="671" type="curve" smooth="yes"/>
      <point x="1311" y="616"/>
      <point x="1269" y="576"/>
      <point x="1210" y="576" type="curve" smooth="yes"/>
      <point x="1159" y="576"/>
      <point x="1133" y="612"/>
      <point x="1133" y="646" type="curve" smooth="yes"/>
      <point x="1133" y="675"/>
      <point x="1153" y="704"/>
      <point x="1193" y="704" type="curve" smooth="yes"/>
      <point x="1219" y="704"/>
      <point x="1232" y="688"/>
      <point x="1232" y="673" type="curve" smooth="yes"/>
      <point x="1232" y="659"/>
      <point x="1220" y="645"/>
      <point x="1195" y="645" type="curve"/>
      <point x="1190" y="618" type="line"/>
      <point x="1239" y="618"/>
      <point x="1261" y="645"/>
      <point x="1261" y="672" type="curve" smooth="yes"/>
      <point x="1261" y="701"/>
      <point x="1237" y="731"/>
      <point x="1194" y="731" type="curve" smooth="yes"/>
      <point x="1143" y="731"/>
      <point x="1106" y="695"/>
      <point x="1106" y="645" type="curve" smooth="yes"/>
      <point x="1106" y="590"/>
      <point x="1150" y="550"/>
      <point x="1210" y="550" type="curve" smooth="yes"/>
      <point x="1291" y="550"/>
      <point x="1338" y="602"/>
      <point x="1338" y="671" type="curve" smooth="yes"/>
      <point x="1338" y="747"/>
      <point x="1277" y="801"/>
      <point x="1190" y="801" type="curve" smooth="yes"/>
      <point x="1069" y="801"/>
      <point x="988" y="681"/>
      <point x="981" y="641" type="curve"/>
      <point x="1401" y="248" type="line"/>
      <point x="981" y="-145" type="line"/>
      <point x="988" y="-185"/>
      <point x="1069" y="-305"/>
      <point x="1190" y="-305" type="curve" smooth="yes"/>
      <point x="1277" y="-305"/>
      <point x="1338" y="-251"/>
      <point x="1338" y="-175" type="curve" smooth="yes"/>
      <point x="1338" y="-106"/>
      <point x="1291" y="-54"/>
      <point x="1210" y="-54" type="curve" smooth="yes"/>
      <point x="1150" y="-54"/>
      <point x="1106" y="-94"/>
      <point x="1106" y="-149" type="curve" smooth="yes"/>
      <point x="1106" y="-199"/>
      <point x="1143" y="-235"/>
      <point x="1194" y="-235" type="curve" smooth="yes"/>
      <point x="1237" y="-235"/>
      <point x="1261" y="-205"/>
      <point x="1261" y="-176" type="curve" smooth="yes"/>
      <point x="1261" y="-149"/>
      <point x="1239" y="-122"/>
      <point x="1190" y="-122" type="curve"/>
      <point x="1195" y="-149" type="line"/>
      <point x="1220" y="-149"/>
      <point x="1232" y="-163"/>
      <point x="1232" y="-177" type="curve" smooth="yes"/>
      <point x="1232" y="-192"/>
      <point x="1219" y="-208"/>
      <point x="1193" y="-208" type="curve" smooth="yes"/>
      <point x="1153" y="-208"/>
      <point x="1133" y="-179"/>
      <point x="1133" y="-150" type="curve" smooth="yes"/>
      <point x="1133" y="-116"/>
      <point x="1159" y="-80"/>
      <point x="1210" y="-80" type="curve" smooth="yes"/>
      <point x="1269" y="-80"/>
      <point x="1311" y="-120"/>
      <point x="1311" y="-175" type="curve" smooth="yes"/>
      <point x="1311" y="-235"/>
      <point x="1262" y="-278"/>
      <point x="1190" y="-278" type="curve" smooth="yes"/>
      <point x="1114" y="-278"/>
      <point x="1039" y="-214"/>
      <point x="1009" y="-142" type="curve"/>
      <point x="1003" y="-161" type="line"/>
      <point x="1437" y="241" type="line"/>
    </contour>
    <contour>
      <point x="47" y="255" type="line"/>
      <point x="47" y="241" type="line"/>
      <point x="478" y="-158" type="line"/>
      <point x="475" y="-140" type="line"/>
      <point x="446" y="-212"/>
      <point x="370" y="-278"/>
      <point x="294" y="-278" type="curve" smooth="yes"/>
      <point x="222" y="-278"/>
      <point x="173" y="-235"/>
      <point x="173" y="-175" type="curve" smooth="yes"/>
      <point x="173" y="-120"/>
      <point x="215" y="-80"/>
      <point x="274" y="-80" type="curve" smooth="yes"/>
      <point x="325" y="-80"/>
      <point x="351" y="-116"/>
      <point x="351" y="-150" type="curve" smooth="yes"/>
      <point x="351" y="-179"/>
      <point x="331" y="-208"/>
      <point x="291" y="-208" type="curve" smooth="yes"/>
      <point x="265" y="-208"/>
      <point x="252" y="-192"/>
      <point x="252" y="-177" type="curve" smooth="yes"/>
      <point x="252" y="-163"/>
      <point x="264" y="-149"/>
      <point x="289" y="-149" type="curve"/>
      <point x="294" y="-122" type="line"/>
      <point x="245" y="-122"/>
      <point x="223" y="-149"/>
      <point x="223" y="-176" type="curve" smooth="yes"/>
      <point x="223" y="-205"/>
      <point x="247" y="-235"/>
      <point x="290" y="-235" type="curve" smooth="yes"/>
      <point x="341" y="-235"/>
      <point x="378" y="-199"/>
      <point x="378" y="-149" type="curve" smooth="yes"/>
      <point x="378" y="-94"/>
      <point x="334" y="-54"/>
      <point x="274" y="-54" type="curve" smooth="yes"/>
      <point x="193" y="-54"/>
      <point x="146" y="-106"/>
      <point x="146" y="-175" type="curve" smooth="yes"/>
      <point x="146" y="-251"/>
      <point x="207" y="-305"/>
      <point x="294" y="-305" type="curve" smooth="yes"/>
      <point x="415" y="-305"/>
      <point x="496" y="-185"/>
      <point x="503" y="-145" type="curve"/>
      <point x="83" y="248" type="line"/>
      <point x="503" y="641" type="line"/>
      <point x="496" y="681"/>
      <point x="415" y="801"/>
      <point x="294" y="801" type="curve" smooth="yes"/>
      <point x="207" y="801"/>
      <point x="146" y="747"/>
      <point x="146" y="671" type="curve" smooth="yes"/>
      <point x="146" y="602"/>
      <point x="193" y="550"/>
      <point x="274" y="550" type="curve" smooth="yes"/>
      <point x="334" y="550"/>
      <point x="378" y="590"/>
      <point x="378" y="645" type="curve" smooth="yes"/>
      <point x="378" y="695"/>
      <point x="341" y="731"/>
      <point x="290" y="731" type="curve" smooth="yes"/>
      <point x="247" y="731"/>
      <point x="223" y="701"/>
      <point x="223" y="672" type="curve" smooth="yes"/>
      <point x="223" y="645"/>
      <point x="245" y="618"/>
      <point x="294" y="618" type="curve"/>
      <point x="289" y="645" type="line"/>
      <point x="264" y="645"/>
      <point x="252" y="659"/>
      <point x="252" y="673" type="curve" smooth="yes"/>
      <point x="252" y="688"/>
      <point x="265" y="704"/>
      <point x="291" y="704" type="curve" smooth="yes"/>
      <point x="331" y="704"/>
      <point x="351" y="675"/>
      <point x="351" y="646" type="curve" smooth="yes"/>
      <point x="351" y="612"/>
      <point x="325" y="576"/>
      <point x="274" y="576" type="curve" smooth="yes"/>
      <point x="215" y="576"/>
      <point x="173" y="616"/>
      <point x="173" y="671" type="curve" smooth="yes"/>
      <point x="173" y="731"/>
      <point x="222" y="774"/>
      <point x="294" y="774" type="curve" smooth="yes"/>
      <point x="369" y="774"/>
      <point x="444" y="710"/>
      <point x="474" y="639" type="curve"/>
      <point x="486" y="661" type="line"/>
    </contour>
    <contour>
      <point x="136" y="248" type="line"/>
      <point x="440" y="-40" type="line"/>
      <point x="521" y="-118"/>
      <point x="627" y="-176"/>
      <point x="743" y="-176" type="curve" smooth="yes"/>
      <point x="861" y="-176"/>
      <point x="974" y="-105"/>
      <point x="1044" y="-40" type="curve"/>
      <point x="1348" y="248" type="line"/>
      <point x="1044" y="536" type="line"/>
      <point x="974" y="601"/>
      <point x="861" y="672"/>
      <point x="743" y="672" type="curve" smooth="yes"/>
      <point x="627" y="672"/>
      <point x="521" y="614"/>
      <point x="440" y="536" type="curve"/>
    </contour>
    <contour>
      <point x="174" y="76" type="curve" smooth="yes"/>
      <point x="211" y="76"/>
      <point x="241" y="48"/>
      <point x="241" y="8" type="curve" smooth="yes"/>
      <point x="241" y="-28"/>
      <point x="213" y="-58"/>
      <point x="174" y="-58" type="curve" smooth="yes"/>
      <point x="138" y="-58"/>
      <point x="107" y="-29"/>
      <point x="107" y="8" type="curve" smooth="yes"/>
      <point x="107" y="44"/>
      <point x="138" y="76"/>
    </contour>
    <contour>
      <point x="175" y="103" type="curve" smooth="yes"/>
      <point x="122" y="103"/>
      <point x="80" y="61"/>
      <point x="80" y="8" type="curve" smooth="yes"/>
      <point x="80" y="-45"/>
      <point x="122" y="-87"/>
      <point x="175" y="-87" type="curve" smooth="yes"/>
      <point x="228" y="-87"/>
      <point x="270" y="-45"/>
      <point x="270" y="8" type="curve" smooth="yes"/>
      <point x="270" y="61"/>
      <point x="228" y="103"/>
    </contour>
    <contour>
      <point x="1310" y="76" type="curve" smooth="yes"/>
      <point x="1346" y="76"/>
      <point x="1377" y="44"/>
      <point x="1377" y="8" type="curve" smooth="yes"/>
      <point x="1377" y="-29"/>
      <point x="1346" y="-58"/>
      <point x="1310" y="-58" type="curve" smooth="yes"/>
      <point x="1271" y="-58"/>
      <point x="1243" y="-28"/>
      <point x="1243" y="8" type="curve" smooth="yes"/>
      <point x="1243" y="48"/>
      <point x="1273" y="76"/>
    </contour>
    <contour>
      <point x="1309" y="103" type="curve" smooth="yes"/>
      <point x="1256" y="103"/>
      <point x="1214" y="61"/>
      <point x="1214" y="8" type="curve" smooth="yes"/>
      <point x="1214" y="-45"/>
      <point x="1256" y="-87"/>
      <point x="1309" y="-87" type="curve" smooth="yes"/>
      <point x="1362" y="-87"/>
      <point x="1404" y="-45"/>
      <point x="1404" y="8" type="curve" smooth="yes"/>
      <point x="1404" y="61"/>
      <point x="1362" y="103"/>
    </contour>
    <contour>
      <point x="1023" y="-208" type="line"/>
      <point x="744" y="-419" type="line"/>
      <point x="461" y="-207" type="line"/>
      <point x="444" y="-228" type="line"/>
      <point x="735" y="-445" type="line" smooth="yes"/>
      <point x="738" y="-447"/>
      <point x="741" y="-448"/>
      <point x="744" y="-448" type="curve" smooth="yes"/>
      <point x="747" y="-448"/>
      <point x="750" y="-447"/>
      <point x="753" y="-445" type="curve" smooth="yes"/>
      <point x="1040" y="-228" type="line"/>
    </contour>
    <contour>
      <point x="864" y="-146" type="line"/>
      <point x="864" y="-336" type="line"/>
      <point x="892" y="-316" type="line"/>
      <point x="892" y="-136" type="line"/>
    </contour>
    <contour>
      <point x="930" y="-115" type="line"/>
      <point x="930" y="-285" type="line"/>
      <point x="958" y="-264" type="line"/>
      <point x="958" y="-99" type="line"/>
    </contour>
    <contour>
      <point x="798" y="-163" type="line"/>
      <point x="798" y="-386" type="line"/>
      <point x="826" y="-365" type="line"/>
      <point x="826" y="-158" type="line"/>
    </contour>
    <contour>
      <point x="730" y="-168" type="line"/>
      <point x="730" y="-425" type="line"/>
      <point x="758" y="-425" type="line"/>
      <point x="758" y="-167" type="line"/>
    </contour>
    <contour>
      <point x="662" y="-159" type="line"/>
      <point x="662" y="-368" type="line"/>
      <point x="690" y="-388" type="line"/>
      <point x="690" y="-164" type="line"/>
    </contour>
    <contour>
      <point x="596" y="-138" type="line"/>
      <point x="596" y="-317" type="line"/>
      <point x="624" y="-337" type="line"/>
      <point x="624" y="-148" type="line"/>
    </contour>
    <contour>
      <point x="530" y="-103" type="line"/>
      <point x="530" y="-268" type="line"/>
      <point x="558" y="-289" type="line"/>
      <point x="558" y="-118" type="line"/>
    </contour>
  </outline>
</glyph>
<glyph name="endofayah-ar.2.ss03" format="2">
  <advance width="1500"/>
  <outline>
    <contour>
      <point x="264" y="-269" type="curve" smooth="yes"/>
      <point x="532" y="-537"/>
      <point x="966" y="-538"/>
      <point x="1235" y="-269" type="curve" smooth="yes"/>
      <point x="1503" y="-1"/>
      <point x="1503" y="434"/>
      <point x="1235" y="702" type="curve" smooth="yes"/>
      <point x="967" y="970"/>
      <point x="532" y="970"/>
      <point x="263" y="701" type="curve" smooth="yes"/>
      <point x="-4" y="434"/>
      <point x="-4" y="-1"/>
    </contour>
    <contour>
      <point x="284" y="-249" type="curve" smooth="yes"/>
      <point x="25" y="9"/>
      <point x="26" y="424"/>
      <point x="283" y="681" type="curve" smooth="yes"/>
      <point x="541" y="939"/>
      <point x="957" y="941"/>
      <point x="1215" y="682" type="curve" smooth="yes"/>
      <point x="1471" y="426"/>
      <point x="1472" y="8"/>
      <point x="1215" y="-249" type="curve" smooth="yes"/>
      <point x="957" y="-507"/>
      <point x="541" y="-506"/>
    </contour>
    <contour>
      <point x="300" y="-232" type="curve" smooth="yes"/>
      <point x="550" y="-481"/>
      <point x="950" y="-480"/>
      <point x="1198" y="-232" type="curve" smooth="yes"/>
      <point x="1445" y="14"/>
      <point x="1445" y="418"/>
      <point x="1199" y="665" type="curve" smooth="yes"/>
      <point x="950" y="913"/>
      <point x="547" y="912"/>
      <point x="300" y="664" type="curve" smooth="yes"/>
      <point x="52" y="417"/>
      <point x="54" y="15"/>
    </contour>
    <contour>
      <point x="1324" y="217" type="line"/>
      <point x="749" y="-358" type="line"/>
      <point x="175" y="217" type="line"/>
      <point x="749" y="791" type="line"/>
    </contour>
    <contour>
      <point x="319" y="-213" type="curve" smooth="yes"/>
      <point x="82" y="25"/>
      <point x="82" y="408"/>
      <point x="320" y="646" type="curve" smooth="yes"/>
      <point x="558" y="884"/>
      <point x="941" y="884"/>
      <point x="1180" y="646" type="curve" smooth="yes"/>
      <point x="1417" y="409"/>
      <point x="1417" y="25"/>
      <point x="1179" y="-213" type="curve" smooth="yes"/>
      <point x="941" y="-451"/>
      <point x="558" y="-451"/>
    </contour>
    <contour>
      <point x="1137" y="699" type="line"/>
      <point x="1039" y="601" type="line"/>
      <point x="1059" y="581" type="line"/>
      <point x="1157" y="680" type="line"/>
    </contour>
    <contour>
      <point x="1175" y="663" type="line"/>
      <point x="1076" y="565" type="line"/>
      <point x="1096" y="545" type="line"/>
      <point x="1194" y="643" type="line"/>
    </contour>
    <contour>
      <point x="1211" y="626" type="line"/>
      <point x="1112" y="528" type="line"/>
      <point x="1132" y="508" type="line"/>
      <point x="1230" y="606" type="line"/>
    </contour>
    <contour>
      <point x="361" y="-76" type="line"/>
      <point x="263" y="-175" type="line"/>
      <point x="283" y="-194" type="line"/>
      <point x="381" y="-96" type="line"/>
    </contour>
    <contour>
      <point x="399" y="-112" type="line"/>
      <point x="300" y="-211" type="line"/>
      <point x="320" y="-230" type="line"/>
      <point x="419" y="-132" type="line"/>
    </contour>
    <contour>
      <point x="435" y="-150" type="line"/>
      <point x="337" y="-248" type="line"/>
      <point x="356" y="-268" type="line"/>
      <point x="455" y="-170" type="line"/>
    </contour>
    <contour>
      <point x="1230" y="-174" type="line"/>
      <point x="1132" y="-76" type="line"/>
      <point x="1112" y="-96" type="line"/>
      <point x="1210" y="-194" type="line"/>
    </contour>
    <contour>
      <point x="1194" y="-212" type="line"/>
      <point x="1096" y="-114" type="line"/>
      <point x="1076" y="-133" type="line"/>
      <point x="1174" y="-232" type="line"/>
    </contour>
    <contour>
      <point x="1157" y="-248" type="line"/>
      <point x="1058" y="-150" type="line"/>
      <point x="1038" y="-169" type="line"/>
      <point x="1137" y="-268" type="line"/>
    </contour>
    <contour>
      <point x="454" y="601" type="line"/>
      <point x="356" y="700" type="line"/>
      <point x="336" y="680" type="line"/>
      <point x="435" y="582" type="line"/>
    </contour>
    <contour>
      <point x="418" y="564" type="line"/>
      <point x="320" y="662" type="line"/>
      <point x="300" y="642" type="line"/>
      <point x="399" y="544" type="line"/>
    </contour>
    <contour>
      <point x="381" y="528" type="line"/>
      <point x="283" y="626" type="line"/>
      <point x="263" y="606" type="line"/>
      <point x="361" y="508" type="line"/>
    </contour>
    <contour>
      <point x="1359" y="217" type="line"/>
      <point x="750" y="826" type="line"/>
      <point x="140" y="217" type="line"/>
      <point x="750" y="-393" type="line"/>
    </contour>
    <contour>
      <point x="679" y="-401" type="line"/>
      <point x="718" y="-401" type="line"/>
      <point x="133" y="185" type="line"/>
      <point x="134" y="144" type="line"/>
    </contour>
    <contour>
      <point x="1366" y="145" type="line"/>
      <point x="1368" y="186" type="line"/>
      <point x="781" y="-401" type="line"/>
      <point x="820" y="-401" type="line"/>
    </contour>
    <contour>
      <point x="718" y="833" type="line"/>
      <point x="677" y="832" type="line"/>
      <point x="130" y="285" type="line"/>
      <point x="131" y="246" type="line"/>
    </contour>
    <contour>
      <point x="818" y="836" type="line"/>
      <point x="780" y="835" type="line"/>
      <point x="1370" y="245" type="line"/>
      <point x="1371" y="283" type="line"/>
    </contour>
  </outline>
</glyph>
<glyph name="five.small" format="2">
  <advance width="350"/>
  <anchor x="0" y="0" name="digit"/>
  <outline>
    <contour>
      <point x="26" y="237" type="curve"/>
      <point x="41" y="218" type="line"/>
      <point x="61" y="222"/>
      <point x="82" y="225"/>
      <point x="111" y="225" type="curve" smooth="yes"/>
      <point x="192" y="225"/>
      <point x="233" y="179"/>
      <point x="233" y="132" type="curve" smooth="yes"/>
      <point x="233" y="84"/>
      <point x="190" y="35"/>
      <point x="100" y="35" type="curve" smooth="yes"/>
      <point x="72" y="35"/>
      <point x="45" y="38"/>
      <point x="26" y="46" type="curve"/>
      <point x="20" y="5" type="line"/>
      <point x="50" y="-4"/>
      <point x="77" y="-6"/>
      <point x="101" y="-6" type="curve" smooth="yes"/>
      <point x="254" y="-6"/>
      <point x="328" y="81"/>
      <point x="328" y="164" type="curve" smooth="yes"/>
      <point x="328" y="241"/>
      <point x="265" y="315"/>
      <point x="145" y="315" type="curve" smooth="yes"/>
      <point x="116" y="315"/>
      <point x="98" y="313"/>
      <point x="78" y="309" type="curve"/>
      <point x="92" y="390" type="line"/>
      <point x="112" y="390"/>
      <point x="238" y="390"/>
      <point x="294" y="372" type="curve"/>
      <point x="297" y="460" type="line"/>
      <point x="269" y="459"/>
      <point x="198" y="458"/>
      <point x="165" y="458" type="curve" smooth="yes"/>
      <point x="132" y="458"/>
      <point x="85" y="459"/>
      <point x="44" y="460" type="curve"/>
      <point x="41" y="403"/>
      <point x="35" y="303"/>
    </contour>
  </outline>
</glyph>
<glyph name="hah-ar.medi" format="2">
  <advance width="525"/>
  <anchor x="295" y="-30" name="bottom"/>
  <anchor x="525" y="205" name="entry"/>
  <anchor x="0" y="0" name="exit"/>
  <anchor x="302" y="400" name="top"/>
  <outline>
    <contour>
      <point x="545" y="205" type="line"/>
      <point x="545" y="345" type="line"/>
      <point x="395" y="345"/>
      <point x="187" y="346"/>
      <point x="48" y="346" type="curve"/>
      <point x="48" y="323"/>
      <point x="64" y="193"/>
      <point x="117" y="198" type="curve" smooth="yes"/>
      <point x="174" y="204"/>
      <point x="213" y="208"/>
      <point x="228" y="208" type="curve" smooth="yes"/>
      <point x="257" y="208"/>
      <point x="259" y="199"/>
      <point x="259" y="176" type="curve" smooth="yes"/>
      <point x="259" y="141"/>
      <point x="252" y="140"/>
      <point x="240" y="140" type="curve" smooth="yes"/>
      <point x="-20" y="140" type="line"/>
      <point x="-20" y="0" type="line"/>
      <point x="450" y="0" type="line"/>
      <point x="447" y="101"/>
      <point x="444" y="140"/>
      <point x="414" y="140" type="curve" smooth="yes"/>
      <point x="351" y="140" type="line" smooth="yes"/>
      <point x="333" y="140"/>
      <point x="330" y="145"/>
      <point x="330" y="178" type="curve" smooth="yes"/>
      <point x="330" y="202"/>
      <point x="332" y="205"/>
      <point x="387" y="205" type="curve" smooth="yes"/>
    </contour>
  </outline>
</glyph>
<glyph name="hamzabelow-ar.nostem" format="2">
  <anchor x="120" y="158" name="_bottom"/>
  <anchor x="41" y="-73" name="bottom"/>
  <outline>
    <contour>
      <point x="70" y="144" type="line"/>
      <point x="70" y="133"/>
      <point x="70" y="98"/>
      <point x="78" y="98" type="curve"/>
      <point x="197" y="98" type="line"/>
      <point x="197" y="107"/>
      <point x="196" y="144"/>
      <point x="189" y="144" type="curve" smooth="yes"/>
    </contour>
    <contour>
      <point x="66" y="81" type="line"/>
      <point x="66" y="70"/>
      <point x="66" y="35"/>
      <point x="74" y="35" type="curve"/>
      <point x="198" y="35" type="line"/>
      <point x="198" y="44"/>
      <point x="197" y="81"/>
      <point x="190" y="81" type="curve" smooth="yes"/>
    </contour>
    <contour>
      <point x="62" y="17" type="line"/>
      <point x="62" y="6"/>
      <point x="62" y="-38"/>
      <point x="70" y="-38" type="curve"/>
      <point x="200" y="-38" type="line"/>
      <point x="200" y="-29"/>
      <point x="199" y="17"/>
      <point x="192" y="17" type="curve" smooth="yes"/>
    </contour>
  </outline>
</glyph>
<glyph name="heh-ar.init" format="2">
  <advance width="580"/>
  <anchor x="323" y="-30" name="bottom"/>
  <anchor x="0" y="0" name="exit"/>
  <anchor x="321" y="488" name="top"/>
  <outline>
    <contour>
      <point x="-20" y="0" type="line"/>
      <point x="502" y="0" type="line" smooth="yes"/>
      <point x="536" y="0"/>
      <point x="538" y="45"/>
      <point x="538" y="174" type="curve" smooth="yes"/>
      <point x="538" y="211"/>
      <point x="531" y="424"/>
      <point x="526" y="445" type="curve"/>
      <point x="480" y="450"/>
      <point x="366" y="451"/>
      <point x="288" y="451" type="curve" smooth="yes"/>
      <point x="261" y="451"/>
      <point x="240" y="451"/>
      <point x="231" y="451" type="curve" smooth="yes"/>
      <point x="128" y="447"/>
      <point x="111" y="444"/>
      <point x="111" y="412" type="curve" smooth="yes"/>
      <point x="111" y="322"/>
      <point x="115" y="174"/>
      <point x="115" y="169" type="curve" smooth="yes"/>
      <point x="115" y="149"/>
      <point x="107" y="140"/>
      <point x="86" y="140" type="curve" smooth="yes"/>
      <point x="-20" y="140" type="line"/>
    </contour>
    <contour>
      <point x="267" y="140" type="curve" smooth="yes"/>
      <point x="195" y="140"/>
      <point x="195" y="147"/>
      <point x="195" y="176" type="curve" smooth="yes"/>
      <point x="195" y="203"/>
      <point x="193" y="262"/>
      <point x="192" y="287" type="curve" smooth="yes"/>
      <point x="191" y="308"/>
      <point x="193" y="310"/>
      <point x="214" y="310" type="curve" smooth="yes"/>
      <point x="264" y="310"/>
      <point x="281" y="301"/>
      <point x="286" y="251" type="curve" smooth="yes"/>
      <point x="289" y="219"/>
      <point x="290" y="194"/>
      <point x="289" y="159" type="curve" smooth="yes"/>
      <point x="289" y="144"/>
      <point x="283" y="140"/>
    </contour>
    <contour>
      <point x="436" y="140" type="curve" smooth="yes"/>
      <point x="364" y="140"/>
      <point x="364" y="147"/>
      <point x="364" y="176" type="curve" smooth="yes"/>
      <point x="364" y="205"/>
      <point x="362" y="263"/>
      <point x="361" y="287" type="curve" smooth="yes"/>
      <point x="360" y="308"/>
      <point x="362" y="310"/>
      <point x="383" y="310" type="curve" smooth="yes"/>
      <point x="433" y="310"/>
      <point x="450" y="301"/>
      <point x="455" y="251" type="curve" smooth="yes"/>
      <point x="458" y="219"/>
      <point x="459" y="194"/>
      <point x="458" y="159" type="curve" smooth="yes"/>
      <point x="458" y="144"/>
      <point x="452" y="140"/>
    </contour>
  </outline>
</glyph>
<glyph name="lam-ar.medi.allah2" format="2">
  <advance width="171"/>
  <anchor x="93" y="-30" name="bottom"/>
  <anchor x="170" y="0" name="entry"/>
  <anchor x="0" y="0" name="exit"/>
  <anchor x="18" y="591" name="top"/>
  <outline>
    <contour>
      <point x="191" y="140" type="line"/>
      <point x="158" y="140" type="line" smooth="yes"/>
      <point x="146" y="140"/>
      <point x="134" y="142"/>
      <point x="133" y="190" type="curve" smooth="yes"/>
      <point x="130" y="390"/>
      <point x="128" y="433"/>
      <point x="121" y="558" type="curve"/>
      <point x="118" y="565"/>
      <point x="113" y="573"/>
      <point x="106" y="573" type="curve" smooth="yes"/>
      <point x="90" y="573"/>
      <point x="19" y="546"/>
      <point x="-10" y="522" type="curve"/>
      <point x="30" y="400"/>
      <point x="50" y="252"/>
      <point x="50" y="190" type="curve" smooth="yes"/>
      <point x="50" y="144"/>
      <point x="46" y="140"/>
      <point x="9" y="140" type="curve" smooth="yes"/>
      <point x="-20" y="140" type="line"/>
      <point x="-20" y="0" type="line"/>
      <point x="191" y="0" type="line"/>
    </contour>
  </outline>
</glyph>
<glyph name="lam_alef-ar.fina" format="2">
  <advance width="557"/>
  <anchor x="497" y="-50" name="bottom_1"/>
  <anchor x="110" y="-50" name="bottom_2"/>
  <anchor x="329" y="0" name="caret_1"/>
  <anchor x="557" y="0" name="entry"/>
  <anchor x="407" y="719" name="top_1"/>
  <anchor x="98" y="669" name="top_2"/>
  <outline>
    <contour>
      <point x="309" y="-145" type="curve"/>
      <point x="329" y="-145"/>
      <point x="343" y="-145"/>
      <point x="351" y="-129" type="curve" smooth="yes"/>
      <point x="400" y="-35"/>
      <point x="429" y="0"/>
      <point x="489" y="0" type="curve" smooth="yes"/>
      <point x="577" y="0" type="line"/>
      <point x="577" y="140" type="line"/>
      <point x="496" y="140" type="line" smooth="yes"/>
      <point x="468" y="140"/>
      <point x="425" y="168"/>
      <point x="400" y="201" type="curve" smooth="yes"/>
      <point x="397" y="204"/>
      <point x="397" y="206"/>
      <point x="399" y="209" type="curve" smooth="yes"/>
      <point x="458" y="324"/>
      <point x="469" y="440"/>
      <point x="469" y="584" type="curve" smooth="yes"/>
      <point x="469" y="609"/>
      <point x="468" y="647"/>
      <point x="468" y="662" type="curve"/>
      <point x="463" y="669"/>
      <point x="449" y="683"/>
      <point x="446" y="683" type="curve" smooth="yes"/>
      <point x="436" y="683"/>
      <point x="372" y="654"/>
      <point x="337" y="632" type="curve"/>
      <point x="342" y="597"/>
      <point x="346" y="543"/>
      <point x="346" y="482" type="curve" smooth="yes"/>
      <point x="346" y="404"/>
      <point x="339" y="353"/>
      <point x="321" y="289" type="curve" smooth="yes"/>
      <point x="319" y="282"/>
      <point x="317" y="283"/>
      <point x="314" y="287" type="curve" smooth="yes"/>
      <point x="240" y="393"/>
      <point x="182" y="489"/>
      <point x="125" y="623" type="curve"/>
      <point x="114" y="623"/>
      <point x="100" y="622"/>
      <point x="90" y="617" type="curve"/>
      <point x="74" y="554"/>
      <point x="71" y="496"/>
      <point x="71" y="435" type="curve"/>
      <point x="120" y="349"/>
      <point x="180" y="277"/>
      <point x="255" y="193" type="curve" smooth="yes"/>
      <point x="259" y="189"/>
      <point x="258" y="187"/>
      <point x="255" y="185" type="curve" smooth="yes"/>
      <point x="210" y="152"/>
      <point x="162" y="140"/>
      <point x="102" y="140" type="curve" smooth="yes"/>
      <point x="45" y="140" type="line"/>
      <point x="45" y="74"/>
      <point x="65" y="0"/>
      <point x="90" y="0" type="curve" smooth="yes"/>
      <point x="177" y="0" type="line" smooth="yes"/>
      <point x="234" y="0"/>
      <point x="277" y="-54"/>
    </contour>
    <contour>
      <point x="317" y="58" type="curve" smooth="yes"/>
      <point x="308" y="67"/>
      <point x="303" y="71"/>
      <point x="294" y="80" type="curve" smooth="yes"/>
      <point x="293" y="81"/>
      <point x="292" y="83"/>
      <point x="292" y="84" type="curve" smooth="yes"/>
      <point x="292" y="85"/>
      <point x="293" y="86"/>
      <point x="294" y="87" type="curve" smooth="yes"/>
      <point x="303" y="95"/>
      <point x="312" y="103"/>
      <point x="323" y="114" type="curve" smooth="yes"/>
      <point x="327" y="119"/>
      <point x="330" y="121"/>
      <point x="331" y="121" type="curve" smooth="yes"/>
      <point x="332" y="121"/>
      <point x="334" y="119"/>
      <point x="335" y="118" type="curve" smooth="yes"/>
      <point x="351" y="103"/>
      <point x="358" y="96"/>
      <point x="367" y="87" type="curve"/>
      <point x="359" y="81"/>
      <point x="341" y="63"/>
      <point x="334" y="56" type="curve" smooth="yes"/>
      <point x="330" y="52"/>
      <point x="327" y="49"/>
      <point x="326" y="49" type="curve" smooth="yes"/>
      <point x="325" y="49"/>
      <point x="321" y="53"/>
    </contour>
  </outline>
</glyph>
<glyph name="nine-ar.small" format="2">
  <advance width="350"/>
  <anchor x="0" y="0" name="digit"/>
  <outline>
    <contour>
      <point x="213" y="373" type="line"/>
      <point x="203" y="294"/>
      <point x="168" y="262"/>
      <point x="138" y="262" type="curve" smooth="yes"/>
      <point x="113" y="262"/>
      <point x="101" y="279"/>
      <point x="101" y="301" type="curve" smooth="yes"/>
      <point x="101" y="340"/>
      <point x="146" y="395"/>
      <point x="205" y="408" type="curve"/>
      <point x="146" y="414" type="line"/>
      <point x="219" y="351"/>
      <point x="236" y="272"/>
      <point x="236" y="168" type="curve" smooth="yes"/>
      <point x="236" y="130"/>
      <point x="230" y="57"/>
      <point x="223" y="-15" type="curve"/>
      <point x="237" y="-12"/>
      <point x="261" y="1"/>
      <point x="267" y="13" type="curve"/>
      <point x="288" y="88"/>
      <point x="305" y="181"/>
      <point x="305" y="264" type="curve" smooth="yes"/>
      <point x="305" y="345"/>
      <point x="288" y="430"/>
      <point x="231" y="478" type="curve"/>
      <point x="112" y="468"/>
      <point x="45" y="344"/>
      <point x="45" y="253" type="curve" smooth="yes"/>
      <point x="45" y="191"/>
      <point x="80" y="156"/>
      <point x="122" y="156" type="curve" smooth="yes"/>
      <point x="176" y="156"/>
      <point x="240" y="216"/>
      <point x="247" y="354" type="curve"/>
    </contour>
  </outline>
</glyph>
<glyph name="number-ar.2" format="2">
  <advance width="1399"/>
  <anchor x="91" y="180" name="digit"/>
  <outline>
    <contour>
      <point x="50" y="0" type="curve"/>
      <point x="109" y="0"/>
      <point x="1302" y="0"/>
      <point x="1369" y="0" type="curve"/>
      <point x="1367" y="81"/>
      <point x="1339" y="140"/>
      <point x="1323" y="140" type="curve" smooth="yes"/>
      <point x="49" y="140" type="line" smooth="yes"/>
      <point x="38" y="140"/>
      <point x="30" y="134"/>
      <point x="30" y="104" type="curve" smooth="yes"/>
      <point x="30" y="80"/>
      <point x="39" y="31"/>
    </contour>
    <contour>
      <point x="1092" y="249" type="curve" smooth="yes"/>
      <point x="1146" y="249"/>
      <point x="1248" y="246"/>
      <point x="1324" y="234" type="curve"/>
      <point x="1324" y="307"/>
      <point x="1283" y="380"/>
      <point x="1262" y="382" type="curve" smooth="yes"/>
      <point x="1206" y="388"/>
      <point x="1110" y="390"/>
      <point x="1052" y="387" type="curve" smooth="yes"/>
      <point x="999" y="384"/>
      <point x="945" y="359"/>
      <point x="945" y="308" type="curve" smooth="yes"/>
      <point x="945" y="272"/>
      <point x="953" y="228"/>
      <point x="969" y="171" type="curve" smooth="yes"/>
      <point x="977" y="143"/>
      <point x="977" y="140"/>
      <point x="935" y="140" type="curve"/>
      <point x="1020" y="103" type="line"/>
      <point x="1087" y="140" type="line"/>
      <point x="1063" y="140"/>
      <point x="1052" y="154"/>
      <point x="1046" y="193" type="curve" smooth="yes"/>
      <point x="1039" y="239"/>
      <point x="1043" y="249"/>
    </contour>
  </outline>
</glyph>
<glyph name="one.small" format="2">
  <advance width="350"/>
  <anchor x="0" y="0" name="digit"/>
  <outline>
    <contour>
      <point x="235" y="469" type="curve"/>
      <point x="191" y="469" type="line"/>
      <point x="149" y="443"/>
      <point x="79" y="426"/>
      <point x="43" y="418" type="curve"/>
      <point x="56" y="383" type="line"/>
      <point x="135" y="385" type="line"/>
      <point x="137" y="329"/>
      <point x="138" y="283"/>
      <point x="138" y="228" type="curve" smooth="yes"/>
      <point x="138" y="168"/>
      <point x="137" y="115"/>
      <point x="135" y="50" type="curve"/>
      <point x="50" y="32" type="line"/>
      <point x="61" y="1" type="line"/>
      <point x="92" y="1"/>
      <point x="148" y="3"/>
      <point x="188" y="3" type="curve" smooth="yes"/>
      <point x="230" y="3"/>
      <point x="280" y="2"/>
      <point x="307" y="1" type="curve"/>
      <point x="318" y="32" type="line"/>
      <point x="235" y="50" type="line"/>
      <point x="233" y="118"/>
      <point x="233" y="174"/>
      <point x="233" y="238" type="curve" smooth="yes"/>
      <point x="233" y="296"/>
      <point x="234" y="344"/>
    </contour>
  </outline>
</glyph>
<glyph name="qafDotless-ar.fina" format="2">
  <advance width="785"/>
  <anchor x="504" y="-311" name="bottom"/>
  <anchor x="785" y="0" name="entry"/>
  <anchor x="353" y="374" name="top"/>
  <outline>
    <contour>
      <point x="604" y="164" type="curve" smooth="yes"/>
      <point x="604" y="149"/>
      <point x="595" y="140"/>
      <point x="571" y="140" type="curve" smooth="yes"/>
      <point x="469" y="142"/>
      <point x="453" y="143"/>
      <point x="453" y="155" type="curve" smooth="yes"/>
      <point x="453" y="158"/>
      <point x="455" y="162"/>
      <point x="458" y="167" type="curve" smooth="yes"/>
      <point x="486" y="213"/>
      <point x="555" y="271"/>
      <point x="571" y="271" type="curve" smooth="yes"/>
      <point x="585" y="271"/>
      <point x="604" y="196"/>
    </contour>
    <contour>
      <point x="700" y="159" type="curve" smooth="yes"/>
      <point x="697" y="268"/>
      <point x="675" y="371"/>
      <point x="654" y="451" type="curve" smooth="yes"/>
      <point x="653" y="454"/>
      <point x="649" y="455"/>
      <point x="644" y="455" type="curve" smooth="yes"/>
      <point x="621" y="455"/>
      <point x="567" y="437"/>
      <point x="544" y="427" type="curve"/>
      <point x="492" y="387"/>
      <point x="332" y="232"/>
      <point x="275" y="158" type="curve"/>
      <point x="277" y="126"/>
      <point x="285" y="47"/>
      <point x="297" y="20" type="curve"/>
      <point x="349" y="5"/>
      <point x="465" y="1"/>
      <point x="577" y="1" type="curve" smooth="yes"/>
      <point x="584" y="1"/>
      <point x="587" y="-4"/>
      <point x="587" y="-13" type="curve" smooth="yes"/>
      <point x="587" y="-22"/>
      <point x="584" y="-35"/>
      <point x="578" y="-52" type="curve" smooth="yes"/>
      <point x="568" y="-81"/>
      <point x="390" y="-218"/>
      <point x="211" y="-218" type="curve" smooth="yes"/>
      <point x="59" y="-218"/>
      <point x="22" y="-160"/>
      <point x="22" y="-88" type="curve" smooth="yes"/>
      <point x="22" y="-71"/>
      <point x="24" y="-54"/>
      <point x="27" y="-36" type="curve"/>
      <point x="23" y="-27"/>
      <point x="16" y="-24"/>
      <point x="9" y="-24" type="curve" smooth="yes"/>
      <point x="3" y="-24"/>
      <point x="-3" y="-24"/>
      <point x="-5" y="-25" type="curve"/>
      <point x="-24" y="-66"/>
      <point x="-40" y="-121"/>
      <point x="-40" y="-175" type="curve" smooth="yes"/>
      <point x="-40" y="-280"/>
      <point x="30" y="-358"/>
      <point x="172" y="-358" type="curve" smooth="yes"/>
      <point x="395" y="-358"/>
      <point x="664" y="-175"/>
      <point x="685" y="-77" type="curve" smooth="yes"/>
      <point x="690" y="-54"/>
      <point x="694" y="-29"/>
      <point x="697" y="-10" type="curve" smooth="yes"/>
      <point x="698" y="-2"/>
      <point x="701" y="0"/>
      <point x="710" y="0" type="curve" smooth="yes"/>
      <point x="805" y="0" type="line"/>
      <point x="805" y="140" type="line"/>
      <point x="728" y="140" type="line" smooth="yes"/>
      <point x="705" y="140"/>
      <point x="701" y="143"/>
    </contour>
  </outline>
</glyph>
<glyph name="reh-ar.fina" format="2">
  <advance width="366"/>
  <anchor x="216" y="-241" name="bottom"/>
  <anchor x="366" y="0" name="entry"/>
  <anchor x="150" y="370" name="top"/>
  <outline>
    <contour>
      <point x="258" y="-119"/>
      <point x="275" y="0"/>
      <point x="288" y="0" type="curve" smooth="yes"/>
      <point x="386" y="0" type="line"/>
      <point x="386" y="140" type="line"/>
      <point x="313" y="140" type="line" smooth="yes"/>
      <point x="298" y="140"/>
      <point x="285" y="146"/>
      <point x="282" y="176" type="curve" smooth="yes"/>
      <point x="276" y="231"/>
      <point x="266" y="278"/>
      <point x="251" y="331" type="curve" smooth="yes"/>
      <point x="249" y="339"/>
      <point x="245" y="345"/>
      <point x="233" y="345" type="curve"/>
      <point x="224" y="341"/>
      <point x="178" y="312"/>
      <point x="148" y="288" type="curve"/>
      <point x="168" y="252"/>
      <point x="203" y="162"/>
      <point x="203" y="69" type="curve" smooth="yes"/>
      <point x="203" y="-8"/>
      <point x="-91" y="-243"/>
      <point x="-320" y="-423" type="curve"/>
      <point x="-320" y="-433"/>
      <point x="-318" y="-443"/>
      <point x="-307" y="-453" type="curve"/>
      <point x="-69" y="-334"/>
      <point x="110" y="-228"/>
      <point x="228" y="-141" type="curve" smooth="yes"/>
    </contour>
  </outline>
</glyph>
<glyph name="seen-ar.fina" format="2">
  <advance width="1262"/>
  <anchor x="968" y="-30" name="bottom"/>
  <anchor x="1262" y="0" name="entry"/>
  <anchor x="920" y="379" name="top"/>
  <outline>
    <contour>
      <point x="752" y="120" type="curve" smooth="yes"/>
      <point x="752" y="99"/>
      <point x="543" y="-92"/>
      <point x="261" y="-92" type="curve" smooth="yes"/>
      <point x="134" y="-92"/>
      <point x="59" y="-38"/>
      <point x="59" y="56" type="curve" smooth="yes"/>
      <point x="59" y="88"/>
      <point x="67" y="124"/>
      <point x="86" y="165" type="curve"/>
      <point x="84" y="174"/>
      <point x="67" y="180"/>
      <point x="58" y="180" type="curve"/>
      <point x="13" y="118"/>
      <point x="-10" y="50"/>
      <point x="-10" y="-12" type="curve" smooth="yes"/>
      <point x="-10" y="-133"/>
      <point x="75" y="-232"/>
      <point x="247" y="-232" type="curve" smooth="yes"/>
      <point x="447" y="-232"/>
      <point x="586" y="-172"/>
      <point x="808" y="-8" type="curve" smooth="yes"/>
      <point x="813" y="-4"/>
      <point x="819" y="0"/>
      <point x="830" y="0" type="curve" smooth="yes"/>
      <point x="1282" y="0" type="line"/>
      <point x="1282" y="140" type="line"/>
      <point x="1201" y="140" type="line" smooth="yes"/>
      <point x="1177" y="140"/>
      <point x="1167" y="141"/>
      <point x="1167" y="186" type="curve" smooth="yes"/>
      <point x="1167" y="237"/>
      <point x="1159" y="291"/>
      <point x="1147" y="332" type="curve" smooth="yes"/>
      <point x="1145" y="339"/>
      <point x="1141" y="345"/>
      <point x="1129" y="345" type="curve"/>
      <point x="1098" y="328"/>
      <point x="1073" y="311"/>
      <point x="1044" y="288" type="curve"/>
      <point x="1065" y="259"/>
      <point x="1092" y="204"/>
      <point x="1092" y="169" type="curve" smooth="yes"/>
      <point x="1092" y="160"/>
      <point x="1091" y="140"/>
      <point x="1072" y="140" type="curve" smooth="yes"/>
      <point x="1033" y="140" type="line" smooth="yes"/>
      <point x="1004" y="140"/>
      <point x="1002" y="157"/>
      <point x="999" y="186" type="curve" smooth="yes"/>
      <point x="994" y="237"/>
      <point x="981" y="291"/>
      <point x="969" y="332" type="curve" smooth="yes"/>
      <point x="967" y="339"/>
      <point x="963" y="345"/>
      <point x="951" y="345" type="curve"/>
      <point x="920" y="328"/>
      <point x="895" y="311"/>
      <point x="866" y="288" type="curve"/>
      <point x="882" y="269"/>
      <point x="924" y="204"/>
      <point x="924" y="169" type="curve" smooth="yes"/>
      <point x="924" y="160"/>
      <point x="923" y="140"/>
      <point x="904" y="140" type="curve" smooth="yes"/>
      <point x="849" y="140" type="line" smooth="yes"/>
      <point x="834" y="140"/>
      <point x="829" y="154"/>
      <point x="823" y="183" type="curve" smooth="yes"/>
      <point x="817" y="211"/>
      <point x="805" y="256"/>
      <point x="784" y="329" type="curve" smooth="yes"/>
      <point x="782" y="336"/>
      <point x="778" y="345"/>
      <point x="765" y="345" type="curve"/>
      <point x="734" y="328"/>
      <point x="704" y="308"/>
      <point x="675" y="285" type="curve"/>
      <point x="722" y="221"/>
      <point x="752" y="160"/>
    </contour>
  </outline>
</glyph>
<glyph name="summation.rtl" format="2">
  <advance width="570"/>
  <outline>
    <contour>
      <point x="32" y="1" type="curve"/>
      <point x="82" y="4"/>
      <point x="276" y="6"/>
      <point x="375" y="6" type="curve" smooth="yes"/>
      <point x="414" y="6"/>
      <point x="468" y="4"/>
      <point x="535" y="1" type="curve"/>
      <point x="549" y="37" type="line"/>
      <point x="465" y="153"/>
      <point x="396" y="255"/>
      <point x="339" y="349" type="curve"/>
      <point x="387" y="416"/>
      <point x="463" y="544"/>
      <point x="538" y="630" type="curve"/>
      <point x="524" y="661" type="line"/>
      <point x="451" y="659"/>
      <point x="396" y="658"/>
      <point x="349" y="658" type="curve" smooth="yes"/>
      <point x="206" y="657"/>
      <point x="99" y="657"/>
      <point x="41" y="660" type="curve"/>
      <point x="50" y="579"/>
      <point x="52" y="503"/>
      <point x="52" y="441" type="curve"/>
      <point x="117" y="441" type="line"/>
      <point x="143" y="572" type="line"/>
      <point x="167" y="584"/>
      <point x="246" y="592"/>
      <point x="327" y="592" type="curve" smooth="yes"/>
      <point x="359" y="592"/>
      <point x="392" y="591"/>
      <point x="422" y="588" type="curve"/>
      <point x="364" y="498"/>
      <point x="276" y="369"/>
      <point x="212" y="293" type="curve"/>
      <point x="274" y="214"/>
      <point x="313" y="158"/>
      <point x="365" y="70" type="curve"/>
      <point x="350" y="68"/>
      <point x="332" y="68"/>
      <point x="312" y="68" type="curve" smooth="yes"/>
      <point x="245" y="68"/>
      <point x="159" y="76"/>
      <point x="133" y="89" type="curve"/>
      <point x="108" y="220" type="line"/>
      <point x="43" y="220" type="line"/>
      <point x="43" y="158"/>
      <point x="41" y="82"/>
    </contour>
  </outline>
</glyph>
<glyph name="two.small" format="2">
  <advance width="350"/>
  <anchor x="0" y="0" name="digit"/>
  <outline>
    <contour>
      <point x="18" y="348" type="curve"/>
      <point x="39" y="321" type="line"/>
      <point x="92" y="378"/>
      <point x="126" y="390"/>
      <point x="158" y="390" type="curve" smooth="yes"/>
      <point x="198" y="390"/>
      <point x="224" y="362"/>
      <point x="224" y="320" type="curve" smooth="yes"/>
      <point x="224" y="264"/>
      <point x="211" y="235"/>
      <point x="26" y="29" type="curve"/>
      <point x="37" y="0" type="line"/>
      <point x="88" y="2"/>
      <point x="127" y="3"/>
      <point x="170" y="3" type="curve" smooth="yes"/>
      <point x="228" y="3"/>
      <point x="278" y="2"/>
      <point x="327" y="0" type="curve"/>
      <point x="316" y="88" type="line"/>
      <point x="239" y="77"/>
      <point x="184" y="77"/>
      <point x="118" y="77" type="curve"/>
      <point x="108" y="41" type="line"/>
      <point x="249" y="187"/>
      <point x="328" y="269"/>
      <point x="328" y="349" type="curve" smooth="yes"/>
      <point x="328" y="424"/>
      <point x="272" y="468"/>
      <point x="200" y="468" type="curve" smooth="yes"/>
      <point x="130" y="468"/>
      <point x="69" y="418"/>
    </contour>
    <contour>
      <point x="268" y="81" type="curve"/>
      <point x="327" y="0" type="line"/>
      <point x="327" y="13"/>
      <point x="326" y="25"/>
      <point x="326" y="37" type="curve" smooth="yes"/>
      <point x="326" y="80"/>
      <point x="329" y="119"/>
      <point x="332" y="157" type="curve"/>
      <point x="296" y="157" type="line"/>
      <point x="286" y="132"/>
      <point x="280" y="108"/>
    </contour>
  </outline>
</glyph>
<glyph name="zero-ar.small" format="2">
  <advance width="250"/>
  <anchor x="0" y="0" name="digit"/>
  <outline>
    <contour>
      <point x="123" y="176" type="curve"/>
      <point x="150" y="193"/>
      <point x="190" y="230"/>
      <point x="190" y="254" type="curve"/>
      <point x="175" y="282"/>
      <point x="154" y="305"/>
      <point x="127" y="325" type="curve"/>
      <point x="95" y="313"/>
      <point x="60" y="266"/>
      <point x="60" y="241" type="curve"/>
      <point x="83" y="221"/>
      <point x="100" y="202"/>
    </contour>
  </outline>
</glyph>
